<?xml version="1.0" encoding="UTF-8"?>
<!DOCTYPE svg PUBLIC "-//W3C//DTD SVG 1.1//EN" "http://www.w3.org/Graphics/SVG/1.1/DTD/svg11.dtd">
<!-- Creator: CorelDRAW -->
<svg xmlns="http://www.w3.org/2000/svg" xml:space="preserve" width="57.8858mm" height="57.8859mm" version="1.1" style="shape-rendering:geometricPrecision; text-rendering:geometricPrecision; image-rendering:optimizeQuality; fill-rule:evenodd; clip-rule:evenodd"
viewBox="0 0 851.91 851.91"
 xmlns:xlink="http://www.w3.org/1999/xlink"
>
 <defs>
  <style type="text/css">
    .fil0 {fill:#076A6C}
    .fil1 {fill:#076A6C}
  </style>
 </defs>
 <g id="Слой_x0020_1">
  <metadata id="CorelCorpID_0Corel-Layer"/>
  <g id="_2128101822848">
   <g>
    <path class="fil0" d="M479.3 133.79l109.43 4.67c9.34,40.27 146.79,19.47 146.79,69.08 0,23.7 -81.41,78.68 -151.55,79.47l0.09 2.38c54.19,-1.23 156.31,15.51 156.57,25.9l0 84.76c-3.96,8.9 -22.29,12.51 -38.33,12.51 -8.37,0 -16.92,10.75 -17.09,20.35l-1.94 82.82 4.49 0 0 9.52 -3.08 0 0 4.93 -3.44 8.55 0 5.46 -3 0 0 10.04 -13.3 0 0 -10.04 -2.99 0 0 -5.46 -3.44 -8.55 0 -4.93 -3.08 0 0 -9.52 4.49 0 -1.94 -82.82c-0.88,-12.51 -2.38,-23.88 -11.01,-22.03l-34.54 6.08c-11.72,3.88 -2.64,20.53 -20.35,24.41 -14.89,2.56 -23.26,10.13 -26.43,24.32l-79.3 22.38c-8.9,3.52 -16.56,10.75 -17.01,20.35l-2.91 112.87 4.85 0 0 10.22 -3.26 0 0 5.29 -3.7 9.16 0 5.81 -3.17 0 0 10.75 -14.36 0 0 -10.75 -3.17 0 0 -5.81 -3.7 -9.16 0 -5.29 -3.26 0 0 -10.22 4.76 0 -2.29 -112.78c-0.44,-7.31 -2.03,-14.89 -7.05,-18.33l-33.22 92.52 0 20.18 -17.27 2.99 -17.62 -5.9 -24.05 -1.5 0 -3.7 8.55 0.62 0 -3.35 -18.06 -1.85 0 -4.05 17.98 1.5 0.09 -13.31 14.27 0 0 -112.25 -64.06 -25.82 -3.08 85.47 4.85 0 0 10.22 -3.26 0 0 5.29 -3.79 9.16 0 5.81 -3.17 0 0 10.75 -14.27 0 0 -10.75 -3.17 0 0 -5.81 -3.79 -9.16 0 -5.29 -3.26 0 0 -10.22 4.85 0 -2.03 -97.54 -68.99 -27.84c-3.35,-1.76 -4.14,-3.7 -4.14,-6.96l0 -24.49c0,-3.7 3.44,-6.26 6.87,-6.26l21.06 0c8.02,0 17.18,-10.13 17.18,-17.53l0.35 -33.13c0.35,-8.99 4.32,-13.74 13.92,-13.74l56.39 0 23.53 -46.08 26.34 7.22 118.24 -121.59zm-52.34 354.29l-30.22 87.49 -4.58 0 0 -45.38 22.03 -47.4 12.78 5.29zm-17.27 -7.05l-17.53 39.47 0 -46.52 17.53 7.05zm-27.14 -10.84l-0.09 104.59 -10.48 -3 0.09 -105.82 10.49 4.23zm-10.13 -24.76l-166.79 -65.02 0.09 -5.64 28.99 0 154.02 56.48c-11.45,1.06 -16.12,4.67 -16.3,14.19zm184.94 -158.86l-115.6 0 0 4.67 115.6 0 0 -4.67zm-189.7 -29.34l116.57 -118.6 -4.93 -4.84 -118.24 121.59 6.61 1.85zm357.64 66.88c6.7,-1.14 14.54,-2.29 15.33,-8.55l0 84.06c-0.62,4.32 -9.16,8.81 -15.33,10.22l0 -85.73zm-118.6 13.75l0 84.14c1.23,-2.38 3,-4.32 5.99,-5.02l6.17 -1.15 0.09 -80.44 -12.25 2.47zm-3.26 3.26l-0.09 91.46c-0.7,1.5 -1.41,2.91 -2.47,4.14l0.09 -89.96 2.47 -5.64zm-167.67 -29.69l178.69 -0.09c31.63,-0.53 65.38,5.99 87.49,12.42l-81.5 8.37c-14.45,1.94 -18.77,1.06 -24.32,22.91l-77.27 7.14 -31.81 -12.42 -35.24 0.18 -26.52 -18.24 10.49 -20.27z"/>
   </g>
   <path class="fil1" d="M425.95 0c235.2,0 425.95,190.75 425.95,425.95 0,235.2 -190.75,425.95 -425.95,425.95 -235.2,0 -425.95,-190.75 -425.95,-425.95 0,-235.2 190.75,-425.95 425.95,-425.95zm0 21.11c223.56,0 404.85,181.3 404.85,404.85 0,223.56 -181.3,404.85 -404.85,404.85 -223.55,0 -404.85,-181.3 -404.85,-404.85 0,-223.55 181.3,-404.85 404.85,-404.85z"/>
   <g>
    <path class="fil1" d="M145.4 388.96c2.12,-1.02 3.26,-0.87 3.61,2.24 0.43,3.62 0,4.21 -2.18,5.1 -0.02,0.06 -0.04,0.13 -0.06,0.19 2.92,2.97 5.2,4.43 4.38,4.91 -1.15,0.67 -0.56,0.98 -3.47,-2.18 -0.43,-0.46 -0.9,-1 -1.42,-1.62 -0.01,0.01 -0.02,0.03 -0.03,0.04 2.14,2.5 3.66,4.17 3.46,4.8l1.23 -0.6 2.65 4.49 5.67 -2.77 -0.39 -0.79 2.87 -1.4 -0.47 -0.97c-0.4,-2.15 -0.87,-3.12 1.35,-5.3l3.99 -2c1.38,-0.08 3.75,0.08 5.05,2.18l1.26 3.15c0.93,1.9 0.56,3.06 -1.01,5.19l-4.28 2.09c-2.48,0.06 -2.83,-0.09 -4.55,-1.6l1.33 2.73 -2.87 1.4 -0.45 -0.93 -5.37 2.62 5.33 9.02 5.64 -2.75 -0.43 -0.88 2.87 -1.4 2.67 5.47 -2.87 1.4 -0.43 -0.88 -5.35 2.61 3.23 5.47 0.62 3.96 0.14 -0.07 4.65 8.94 31.47 57.59c22.01,-8.01 36.87,-4.41 50.86,21.68l0 0c0.65,3.12 2.08,6.84 4.5,22.09 1.07,0.73 9.39,6.93 4.33,8.86 -7.22,4.56 -8.82,2.39 -5.26,17.41 0.81,1.67 3.65,5.81 5.43,8.18l-1.82 1.81c-1.26,-1.76 -2.4,-3.45 -3.45,-4.85 -6.66,-14.65 -5.21,-18.96 1.45,-23.2 4.67,-1.73 -3.44,-7.38 -4.42,-8.16 -2.75,-15.03 -3.04,-16.96 -3.78,-20.04l0 0c-13.92,-26.17 -26.14,-26.27 -44.92,-20.81l-20.68 10.09 -2.54 1.42c-22.45,13.38 -29.23,35.44 0.38,65.95 2.02,4.14 -2.25,4.1 1.69,6.71 4.92,-0.76 13.48,-7.61 23.58,14.09 4.49,8.07 7.97,26.84 -11.19,32.65l-0.12 5.13c1.11,0.3 2.02,0.94 2.78,1.84l-2.65 2.63c-0.99,-1.77 -2.28,-2.98 -4,-3.37l-0.34 -8.19c8.94,-3.27 18.76,-2.93 10.51,-30.35 -0.39,-0.79 -0.73,-1.17 -1.01,-2.07 -9.12,-18.69 -14.26,-8.54 -19.54,-7.6 -4.19,-2.54 -1.12,-6.22 -3.15,-10.36 -31.53,-30.95 -23.41,-56.8 2.79,-71l-27.45 -66.24 -1.77 -4.15 0.04 -0.02 -0.02 -0.04c0,0 -2.39,-1.89 -2.91,-2.95 -0,-0.01 -0.02,-0.04 -0.04,-0.09l-3.62 1.77 0.41 0.84 -2.87 1.4 -1.05 -2.16c0.35,1.2 -0.16,2.19 -1.62,3.85l-4.28 2.09c-2.39,0.24 -2.7,0.17 -4.25,-0.98l-1.46 -3c-0.2,-1.76 -0.59,-2.55 1.71,-4.55l3.99 -2c1.27,-0.15 3.37,-0.22 4.5,1.18l2.65 -1.29 0.43 0.88 3.97 -1.94c-1.09,-2.87 -2.64,-6.94 -4.23,-10.98l-4.71 2.3 0.43 0.88 -2.87 1.4 -1.4 -2.87c0.92,1.9 0.43,3.12 -1.11,5.23l-4.14 2.02c-2.37,0.06 -2.76,-0.07 -4.42,-1.67l-1.81 -3.7c-0.48,-2.11 -0.96,-3.08 1.17,-5.21l3.9 -1.96c1.38,-0.08 3.68,0.17 5,2.2l0.18 0.46 2.82 -1.37 0.43 0.88 4.99 -2.44c-1.46,-3.64 -2.82,-6.93 -3.76,-8.9 -0.14,0.07 -0.29,0.13 -0.45,0.2 -0.64,0.31 -1.01,-2.39 -1.69,-6.6 -0.1,-0.05 -0.21,-0.1 -0.31,-0.15 -1.97,1.23 -2.9,1.33 -5.4,-1.37 -2.09,-2.3 -1.62,-3.39 0.24,-4.4 -0.15,-1.38 1.12,-2.29 3.25,-3.43 -1.59,-4.23 -3.54,-7.51 -2.73,-7.71l1.67 -0.82 0.03 0.12c-0.1,-0.52 -0.15,-0.9 -0.13,-1.1 0.4,-0.17 1.87,3.8 3.42,8.34l-0.05 0.02c-1.91,-5.11 -3.37,-8.37 -3.2,-8.45 0.17,-0.08 1.81,3.06 4.67,7.68 0.08,-0.04 0.15,-0.08 0.23,-0.11 -2.56,-3.97 -4.78,-7.49 -4.68,-7.67 0.04,-0.1 0.28,0.13 0.67,0.6l1.68 -0.82c0.56,-0.32 1.83,2.94 4.31,7 1.91,-0.74 3.34,-0.86 4.33,-0.16zm17.03 295.81l1.32 2.05c-6.52,5.59 -4.2,8.86 -0.22,5.9 0.26,0.52 0.6,0.96 0.98,1.36 1,-0.73 1.96,-1.58 2.73,-2.72l-0.9 -1.56c0.13,-0.17 0.25,-0.34 0.37,-0.52 0.78,0.84 1.58,1.64 2.41,2.43l-15.81 16.08c-3.52,0.91 -6.08,-3.18 -8.54,-5.29l-1.86 1.84 -1.09 -1.14 -4.02 4.16c-0.53,-0.48 -0.67,-0.57 -1.1,-1.15l4.05 -4.06 -1.12 -1.09 30.91 -30.71 0 0 14.98 -14.88 166.98 -165.93c3.55,-4.42 7.96,3.06 16.49,-0.14l-8.33 8.49c-3.93,-3.29 -7.53,-4.77 -10.88,-0.9l-160.2 160.57 0 0 -15.87 15.9 0 0 -11.28 11.3zm4.43 6.79l-0.94 -1.6 -2.2 2.26c0.21,0.48 0.64,1.14 0.98,1.5 0.79,-0.58 1.56,-1.26 2.17,-2.16zm-26.55 10.18l-0.45 -0.45 -4.03 4.1c0.09,0.29 0.21,0.55 0.36,0.8l0 0 0 0c0.26,0.43 0.6,0.8 0.97,1.11 0.27,0.23 0.54,0.42 0.83,0.58l0 0c0.23,0.13 0.47,0.25 0.72,0.35l4.01 -4.08 -0.59 -0.59 -4.1 4.17c-0.63,-0.35 -1.21,-0.93 -1.7,-1.64l4.13 -4.2 -0.14 -0.14zm29.05 -10.58l194.61 -192.62c0.75,-1.25 0.93,-2.99 0.5,-4.55l-2.31 2.36c-0.09,0.84 -0.72,1.72 -1.69,2.57l-192.93 190.47 1.82 1.77zm71.83 -52.15l25.75 -12.62c1.33,3.83 1.36,6.81 1.44,8.19 3.56,23.65 14.12,39.44 18.86,49.57 3.18,-1.69 6.53,-3.58 10.09,-5.7 18.27,-13.23 27.88,-32.22 18.8,-52.73 -9.1,-20.55 -21.59,-20.19 -21.9,-33.03l-5.74 -5.06c-5.4,3.55 -9.96,4.02 -13.86,2.78l2.75 -2.72c3.54,0.38 7.73,-0.92 13.13,-4.79l5.52 5.27c-0.13,13.05 15.31,15.94 24.31,36.5 9.06,20.57 0.67,40.39 -19.34,54.41 -4.57,2.7 -8.83,5.04 -12.83,7.12 0.12,0.29 0.24,0.58 0.35,0.87 -0.06,5.11 -8.96,8.14 -12.62,5.88 -0.11,-0.21 -0.23,-0.43 -0.34,-0.65 -5.27,2.36 -10.11,4.31 -14.73,6.11 -5.75,2.2 -11.19,2.46 -16.83,2.65 -8.21,0.18 -33.44,-5.56 -40.46,-29.1 -0.87,-2.71 -1.43,-5.97 -1.9,-9.38l3.22 -3.19c0.48,3.57 1.08,7.06 2.07,10.01 7.28,23.41 32.12,29.46 39.77,29.49 5.31,0.03 8.25,-0.64 13.54,-2.68 4.49,-1.69 9.2,-3.55 14.34,-5.87 -5.01,-10.24 -14.51,-32.46 -27.22,-44.98 -1.92,-1.63 -5.44,-4.5 -6.16,-6.38zm23 -5.35c0.75,-0.36 1.65,-0.05 2.01,0.69 0.36,0.75 0.05,1.65 -0.69,2.01 -0.75,0.36 -1.65,0.05 -2.01,-0.69 -0.36,-0.75 -0.05,-1.65 0.69,-2.01zm-4.98 2.43c0.75,-0.36 1.65,-0.05 2.01,0.69 0.36,0.75 0.05,1.65 -0.69,2.01 -0.75,0.36 -1.65,0.05 -2.01,-0.69 -0.36,-0.75 -0.05,-1.65 0.69,-2.01zm-4.98 2.43c0.75,-0.36 1.65,-0.05 2.01,0.69 0.36,0.75 0.05,1.65 -0.69,2.01 -0.75,0.36 -1.65,0.05 -2.01,-0.69 -0.36,-0.75 -0.05,-1.65 0.69,-2.01zm-4.98 2.43c0.75,-0.36 1.65,-0.05 2.01,0.69 0.36,0.75 0.05,1.65 -0.69,2.01 -0.75,0.36 -1.65,0.05 -2.01,-0.69 -0.36,-0.75 -0.05,-1.65 0.69,-2.01zm-104.37 -242.07c-0.04,0.02 -0.08,0.04 -0.12,0.06 1,1.39 2.06,2.8 3.18,4.23 0.01,0.03 0.01,0.07 0.02,0.1l0.25 -0.12c-0.49,-0.19 -1.15,-0.91 -2.28,-2.65 -0.26,-0.42 -0.62,-0.97 -1.04,-1.62zm-3.98 2.28c-0.01,0.01 -0.02,0.01 -0.02,0.02 0.11,0.32 0.2,0.62 0.29,0.88 0.76,2.29 0.95,3.47 0.85,4.11l0.3 -0.15c-0.03,-0.02 -0.05,-0.05 -0.07,-0.07 -0.43,-1.65 -0.89,-3.25 -1.35,-4.79zm-0.85 4.59c0.08,0.65 0.07,1.08 -0,1.38l0.5 -0.24c-0.15,-0.24 -0.32,-0.63 -0.49,-1.14zm-0.07 -16.18l0.04 -0.02c-0.48,-0.64 -0.97,-1.28 -1.45,-1.92 0.44,0.62 0.91,1.27 1.4,1.94zm8 14.07c-0.06,1.99 -3.36,4.05 -5.37,2.62l-0.61 0.3 4.24 8.68 6.39 -3.12 1.81 3.7 -6.39 3.12 5.14 10.53 6.39 -3.12 1.83 3.75 -6.39 3.12 1.76 3.61 7.8 -3.81 -4.43 -9.08 -7.36 3.59 -1.81 -3.7 7.36 -3.59 -4.58 -9.39 -7.14 3.48 -1.83 -3.75 7.14 -3.49 -2.13 -4.36 -1.82 0.89zm76.93 219.73l4.47 -4.91 15.81 -7.7 -19.71 19.44c0.34,-2.49 0.05,-4.6 -0.57,-6.84zm-8.05 8.48l4.57 -4.71c0.5,3.25 0.31,6.2 -1.18,8.57 -0.72,1.3 -1.83,2.24 -2.36,0.96 -0.22,-0.61 -0.33,-1.23 -0.4,-1.84 -0.13,-1.19 -0.26,-2.25 -0.63,-2.98zm50.54 -50.22c1.14,1.21 2.28,2.3 3.46,3.21l-2.16 2.14c-1.19,-1 -2.3,-2.14 -3.35,-3.33l2.05 -2.02zm-66.78 72.96c-0.28,-2.08 -0.58,-4.09 -0.96,-5.96l3.13 -3.1c0.43,1.8 0.76,3.78 1.05,5.86l-3.22 3.2zm-16.45 -140.15l2.45 -1.37 19.94 -9.73c18.13,-5.23 29.94,-5.09 43.5,20.42l0 0c0.73,3 1.01,4.88 3.73,19.51 0.95,0.76 8.52,5.01 4.01,6.67 -6.42,4.09 -7.52,9.56 -1.02,23.83 1.11,1.48 2.35,3.37 3.75,5.38l-3.61 3.59c-1.47,-1.72 -2.99,-2.93 -4.61,-3.3 -2.77,-1.65 -5.93,-1.31 -7.31,0.79 -1.4,2.27 -1.02,5.41 2.15,6.65 0.53,-0.26 3.82,-2.68 0.01,-5.46 0.43,1.32 -0.89,-2.73 1.77,-1.85 1.92,0.02 3.76,2.24 5.69,5.46l-31.88 31.67c-3.59,-8.98 -9.01,-17.94 -6.56,-21.15 0.95,-2.64 3.33,0.89 2.55,-0.26 -0.15,4.72 3.69,3.66 4.22,3.4 0.98,-3.26 -1.26,-5.5 -3.91,-5.78 -2.41,-0.24 -4.63,2.04 -5.03,5.24 -2.18,4.65 2.52,13.36 5.49,21.79l-18.11 17.99c-0.65,-0.67 -1.43,-1.15 -2.34,-1.4l-0.17 -3.44c18.5,-5.57 15.32,-26.47 10.96,-34.34 -9.85,-21.15 -18.22,-15.61 -22.97,-14.89 -3.82,-2.55 -0.08,-1.22 -2.05,-5.26 -28.74,-29.79 -22.28,-51.22 -0.63,-64.14zm80.37 70.04c1.19,1.5 2.06,2.45 3.2,3.46l-4.5 4.47c-0.82,-1.42 -1.45,-2.57 -2.46,-4.16l3.76 -3.77zm8.77 7.23c4.04,1.78 8.72,1.74 14.15,-1.84l4.96 3.41c0.36,12.49 12.05,11.42 20.93,31.44 8.86,19.98 -0.36,38.42 -17.96,51.21 -3.06,1.82 -5.95,3.46 -8.71,4.95 -5.13,-10.14 -14.9,-25.26 -17.2,-47.93 -0.03,-1.4 0.15,-4.5 -1.08,-8.37l-30 14.69c0.7,1.89 4.5,4.63 6.57,6.18 12.75,11.36 21.75,31.73 26.95,42.65 -4.38,1.92 -8.43,3.51 -12.32,4.97 -5.1,1.96 -7.94,2.6 -13.07,2.55 -7.4,-0.06 -31.43,-6.04 -38.56,-28.84 -0.88,-2.61 -1.42,-5.6 -1.83,-8.67l57.56 -56.91c4.24,6.27 9.38,10.54 16.22,6.82 1.3,-0.36 3.21,-2.6 3.51,-4.55 0.47,-3.4 -1.78,-6.66 -5.55,-4.77 -1.13,1.04 -1.63,2.81 -0.26,4.49 1.71,1.95 4.15,3.7 1.91,4.25 -5.2,0.31 -9.22,-3.98 -12.75,-9.29l6.54 -6.47zm-68.13 58.35c-0.26,-2.12 -0.56,-4.14 -0.98,-5.95l8.04 -7.93c0.43,0.49 0.97,0.93 1.58,1.29 0.93,0.52 2.21,0.72 3.37,0.67l-12.01 11.93zm55.03 -54.65c-0.79,-1.46 -1.56,-2.93 -2.29,-4.32 -0.01,-0.02 -0.02,-0.07 -0.03,-0.05 -0.06,0.09 -0.06,0.03 -1.58,1.57l-10.25 10.13 -2.13 2.12 10.61 -5.18 0.44 0.91 5.22 -5.18zm-89.02 -185.75l4.05 -1.98c1.27,-0.19 3.64,-0.03 4.85,1.78l1.11 2.95c0.82,1.68 0.48,2.77 -1.21,4.79l-4.28 2.09c-2.37,0.18 -3.03,0.06 -4.59,-1.25l-1.64 -3.39c-0.35,-1.96 -0.52,-2.81 1.7,-4.99z"/>
   </g>
  </g>
 </g>
</svg>
