<?xml version="1.0" encoding="UTF-8"?>
<!DOCTYPE svg PUBLIC "-//W3C//DTD SVG 1.1//EN" "http://www.w3.org/Graphics/SVG/1.1/DTD/svg11.dtd">
<!-- Creator: CorelDRAW -->
<svg xmlns="http://www.w3.org/2000/svg" xml:space="preserve" width="57.8858mm" height="57.8859mm" version="1.1" style="shape-rendering:geometricPrecision; text-rendering:geometricPrecision; image-rendering:optimizeQuality; fill-rule:evenodd; clip-rule:evenodd"
viewBox="0 0 1285.49 1285.49"
 xmlns:xlink="http://www.w3.org/1999/xlink"
>
 <defs>
  <style type="text/css">
    .fil0 {fill:#076A6C}
  </style>
 </defs>
 <g id="Слой_x0020_1">
  <metadata id="CorelCorpID_0Corel-Layer"/>
  <g id="_2128101680848">
   <g>
    <path class="fil0" d="M383.4 404.22c80.2,-43.41 159.34,-78.03 230.95,-78.28 24.1,0.87 48.41,15.26 48.39,45.16 0,2.54 -0.17,5.07 -0.5,7.61l0 110.27c23.59,2.26 58.34,-1.98 101.04,-12.94 75.68,-19.42 174.27,-59.43 280.26,-119.54l-0.07 21.88 -0.24 0.12 0 86.48 0.01 1.4 -0.01 0 0 89.85 0.01 1.4 -0.01 0 0 84.96 0.01 1.4 -0.01 0 0 87.04 0.01 1.4c-172.56,90.73 -281.83,127.43 -370.95,133.44 -36.55,-0.64 -61.71,-9.39 -68.01,-31.71 -1.05,-3.7 -1.46,-7.16 -1.38,-10.45l0.48 -121.48c-52.44,4.37 -142.43,41.36 -248.94,101.22l-1.55 -10.94c18.26,-5.39 32.35,-14.74 42.3,-27.98 2.54,-3.41 4.79,-6.94 6.74,-10.58 68.32,-36.62 136.1,-65.6 201.52,-70.43l0.14 -35.61 0.14 -35.33c-43.53,3.52 -113.12,29.67 -196.64,72.82 -2.23,-6.8 -5.15,-13.17 -8.81,-19.11 69.68,-37.61 138.84,-67.59 205.53,-72.42l0.29 -74.21c-55.81,4.36 -154.8,46.2 -271.17,113.54l-1.08 0.04 -2.78 -20.68c93.04,-54.28 186.25,-105.29 275.1,-111.61l0.11 -28.88 5.81 -15.55c2.15,-6.74 5.81,-13.24 9.35,-20.55 0.38,-0.79 0.76,-1.57 1.14,-2.34 -42.67,-8.44 -136.41,25.62 -252.31,88.76 3.56,-7.03 6.66,-14.29 9.32,-21.8 1.24,-2.92 2.22,-5.38 2.95,-7.4 81.18,-44.13 161.34,-79.58 233.8,-79.83 5.1,0.18 10.2,0.97 15.08,2.39 12.51,-25.28 19.77,-41.53 13.27,-54.85 -17.99,-36.88 -119.89,-7.81 -255.87,64.08 -0.68,-7.15 -1.82,-14.08 -3.43,-20.79zm-31.59 377.71c6.17,-3.55 12.34,-7.07 18.51,-10.54 -5.09,4.71 -11.26,8.22 -18.51,10.54zm672.95 -393.79c-161.47,83.44 -261.29,115.46 -347.15,121.25 -23.82,-0.42 -42.8,-4.28 -54.87,-13.1l0 61.06c1.15,26.48 53.72,30.06 135.23,9.14 71.24,-18.28 167.1,-57.52 266.53,-112.21l0.26 -66.14zm-0.35 88.06c-161.75,83.57 -266.28,117.84 -352.11,123.62 -20.58,-0.36 -37.53,-3.29 -49.56,-9.76l0 58.55c1.15,26.48 53.72,30.06 135.23,9.14 71.15,-18.26 166.87,-57.42 266.17,-112.01l0.27 -69.54zm-0.36 91.44c-161.55,83.44 -265.98,117.66 -351.75,123.44 -20.58,-0.36 -37.53,-3.29 -49.56,-9.77l0 53.66c1.15,26.48 53.72,30.06 135.23,9.14 71.07,-18.24 166.65,-57.33 265.83,-111.82l0.26 -64.65zm-0.34 86.54c-161.35,83.31 -265.7,117.49 -351.41,123.26 -20.57,-0.36 -37.53,-3.29 -49.56,-9.76l0 55.73c1.15,26.48 53.72,30.06 135.23,9.14 70.99,-18.22 166.43,-57.24 265.47,-111.63l0.26 -66.75zm-379.46 -225.66c-4.69,9.32 -10.41,19.86 -15.61,32.14 -2.54,11.54 2.84,19.67 14.86,24.31l0.49 -34.64 0.26 -21.81zm399.08 15.56l0.22 -0.12 -0 0.12 -0.22 0z"/>
    <polygon class="fil0" points="1068.02,347.74 1086.65,337.19 1086.65,713.99 1066.59,725.34 1067.51,548.74 1068.2,372.91 "/>
    <path class="fil0" d="M331.34 678.15c-8.5,1.47 -16.87,6.07 -25.23,13.94 -7.78,7.76 -12.04,16.59 -12.74,26.49 -0.42,5.97 1.17,13.11 4.81,21.44 3.65,7.42 9.48,13.44 17.54,18.21 2.23,0.35 3.41,1.69 3.43,3.9 -0.45,0.64 -1.06,1.05 -1.76,1.16 -0.72,0.4 -1.14,0.59 -1.37,0.57 -12.96,-4.32 -23.24,-12.1 -30.85,-23.3 -7.67,-11.14 -11.05,-23.24 -10.14,-36.19 0.27,-3.88 0.74,-7.24 1.41,-10.19 0.67,-2.95 2.06,-7.03 4.16,-12.29 2.1,-5.21 5.63,-10.93 10.46,-17.05 9.03,-11.56 20.59,-19.58 34.57,-24.12l-6.11 -50.75c-12.73,8.95 -23.69,17.58 -32.84,25.9 -9.28,8.54 -17.6,17.33 -24.82,26.26 -7.22,8.93 -13.36,18.8 -18.28,29.67 -2.18,5.49 -3.99,10.72 -5.33,15.71 -1.28,5.05 -2.13,10.64 -2.56,16.66 -0.21,2.98 -0.41,5.91 -0.61,8.78 0.5,2.81 0.82,4.88 0.95,6.19 0.88,4.82 2.25,10.03 4.17,15.62 3.47,10.01 9.06,19.4 16.84,28.18 7.43,8.8 16.1,15.61 26.06,20.54 9.78,5.08 21.14,8.14 33.92,9.16 7.89,0.63 17.43,-0.08 28.69,-2.18l-14.37 -112.32zm10.51 -0.46l14.52 110.13c22.42,-6.92 34.64,-25.08 36.69,-54.46 -0.64,-9.96 -3.02,-18.87 -7.11,-26.61 -4.31,-7.87 -10.21,-14.57 -17.75,-20.15 -7.4,-5.12 -16.22,-8.09 -26.35,-8.9zm-19.36 -149.29c5.01,-2.03 10.76,-6.44 17.2,-13.23 3.78,-3.6 6.85,-6.92 9.38,-10.06l9.13 -12.18c5.88,-7.96 10.9,-16.84 15.12,-26.64 4.16,-9.86 6.51,-18.61 7.05,-26.32l-0.27 -10.16c-0.44,-5.3 -1.83,-9.37 -4.18,-12.17 -2.35,-2.79 -5.83,-4.37 -10.44,-4.74 -8.17,-0.65 -16.26,3.97 -24.18,13.81l-7.87 13.18 -7.53 17.46 -4.99 18.34 -2.57 17.68c-0.22,3.21 -0.41,5.91 -0.57,8.11 -0.16,2.31 -0,5.83 0.59,10.63 0.58,5.03 1.93,10.46 4.13,16.29zm-9.68 7.66l-5.44 -36.44c-0.94,-12.19 -1.06,-23.69 -0.32,-34.33 1.08,-15.48 3.63,-29.54 7.7,-42.18 3.48,-12.51 8.44,-23.84 14.93,-33.79 6.23,-9.69 12.74,-16.64 19.58,-20.85 6.53,-4.01 11.18,-5.9 14,-5.67 1.32,0.1 2.89,0.85 4.59,2.18l5.14 6.75c15.19,25.33 21.58,54.71 19.24,88.26 -0.62,8.78 -1.54,16.18 -2.76,22.14 -1.07,6.26 -1.96,10.6 -2.6,13.1 -0.63,2.39 -1.99,6.07 -4.13,11.1 -5.27,14.86 -12.26,28.74 -21.1,41.79 -9.08,13.09 -19.78,24.51 -32.26,34.21l7.61 56.65 13.06 -0.43c11.4,0.91 21.14,3.95 29.4,9.14 8.81,4.78 15.97,11.64 21.43,20.45 5.68,8.21 9.85,17.26 12.63,27.22 2.72,9.95 3.73,20.34 2.97,31.09 -1.14,16.27 -6.5,30.9 -16.15,43.82 -9.96,13.24 -24.04,22.59 -42.3,27.98l4.22 29.83 4.39 31.54 0.1 22.59c-0.78,11.2 -4.12,20.79 -9.94,28.7 -6.11,7.89 -14.08,14.21 -23.89,18.81 -9.77,3.98 -20.18,5.52 -31.18,4.64 -15.31,-1.22 -28.71,-6.71 -40.24,-16.46 -11.87,-9.84 -17.27,-22.04 -16.25,-36.62 0.23,-3.21 0.84,-6.22 1.96,-8.96l4.26 -9.62c2.87,-5.43 7.12,-9.96 12.82,-13.58 5.51,-3.47 11.4,-4.92 17.56,-4.43 5.76,0.46 11.07,2.24 15.94,5.41 4.63,3.26 8.26,7.73 10.92,13.5 2.33,5.62 3.25,11.41 2.83,17.49 -0.58,8.33 -3.84,15.2 -9.72,20.62 -6.16,5.39 -13.62,7.69 -22.37,6.99l-3.4 -0.27c4.92,9.05 13.83,14.07 26.79,15.1 5.93,0.48 12.41,-0.31 19.5,-2.4 7.16,-2.2 13.17,-5.4 18.09,-9.54l6.42 -6.62 3.84 -6.83c2.49,-5.86 4.03,-13.78 4.72,-23.68 0.49,-7.04 0.34,-13.16 -0.39,-18.43 -0.19,-3.86 -0.34,-6.71 -0.44,-8.53 -0.28,-1.89 -0.72,-3.85 -1.27,-5.87l-2.52 -14.47 -3.98 -25.85 -13.01 1.45 -13.88 -0.15c-14.51,-1.16 -29.02,-5.44 -43.56,-12.88 -13.11,-7.9 -24.69,-17.71 -34.76,-29.33 -9.15,-11.54 -16.19,-25.07 -21.24,-40.53 -5.14,-15.07 -7.21,-30.18 -6.15,-45.27 0.47,-6.7 1.65,-13.62 3.48,-20.78 0.65,-2.72 1.74,-5.86 3.22,-9.54 1.17,-3.53 2.5,-6.88 4.11,-9.92l10.64 -18.91c1.89,-2.96 3.87,-5.69 5.85,-8.31 1.74,-2.52 3.91,-5.4 6.51,-8.59l13.3 -15.52 14.06 -13.99c11.7,-10.78 24.22,-21.78 37.45,-33.01z"/>
    <path class="fil0" d="M483 339.8l9.23 0c1.12,9.51 5.07,18.28 11.86,26.31 6.78,8.03 13.68,15.96 20.67,23.78 8.11,10.36 13.64,22.4 16.58,36.14 2.1,9.93 3.15,23.35 3.15,40.26l0 7.61c0,6.13 -0.21,12.26 -0.63,18.39l-6.93 0 0.63 -6.02 0 -8.88 0 -9.83c0,-11.2 -1.12,-19.65 -3.36,-25.36 -2.94,-7.19 -8.81,-14.27 -17.63,-21.24 -7.55,-5.71 -12.87,-10.68 -15.95,-14.9 -3.64,-4.86 -6.02,-10.67 -7.14,-17.43l-1.26 0 0 185.14c0,21.98 -4.34,39.31 -13.01,51.99 -8.67,12.68 -20.22,19.02 -34.63,19.02 -8.95,0 -16.02,-3.06 -21.2,-9.19 -5.18,-6.13 -7.76,-14.37 -7.76,-24.73 0,-18.39 5.39,-33.18 16.16,-44.38 9.23,-9.51 19.38,-14.27 30.43,-14.27 4.48,0 8.36,0.79 11.65,2.38 3.29,1.59 5.98,4.17 8.08,7.77l1.05 0 0 -222.55z"/>
    <path class="fil0" d="M585.26 412.23l0 217.74c0,20.46 -4.06,36.58 -12.18,48.39 -8.12,11.8 -18.86,17.7 -32.22,17.7 -9.95,0 -17.28,-3.74 -22,-11.21 -3.54,-5.71 -5.31,-12.49 -5.31,-20.36 0,-15.54 4.26,-28.52 12.77,-38.94 8.51,-10.42 18.86,-15.64 31.04,-15.64 4.19,0 7.82,0.74 10.9,2.21 3.08,1.47 5.6,3.89 7.56,7.23l0.79 0 0 -207.11 8.64 0z"/>
    <path class="fil0" d="M754 434.79l0 254.6c0,20.46 -4.06,36.58 -12.18,48.39 -8.12,11.8 -18.86,17.7 -32.22,17.7 -9.95,0 -17.29,-3.74 -22,-11.21 -3.54,-5.71 -5.3,-12.49 -5.3,-20.36 0,-15.54 4.26,-28.52 12.77,-38.94 8.51,-10.42 18.86,-15.64 31.04,-15.64 4.19,0 7.82,0.74 10.9,2.21 3.08,1.47 5.6,3.88 7.56,7.23l0.79 0 0 -241.2 -0.06 -61.69 129.2 -45.87 0 19.42 0 46.58 0 171.15c0,20.46 -4.06,36.58 -12.18,48.39 -8.12,11.8 -18.86,17.7 -32.21,17.7 -9.95,0 -17.29,-3.74 -22,-11.21 -3.54,-5.7 -5.3,-12.49 -5.3,-20.36 0,-15.54 4.25,-28.52 12.77,-38.94 8.51,-10.42 18.86,-15.64 31.04,-15.64 4.19,0 7.82,0.74 10.9,2.21 3.08,1.48 5.6,3.89 7.56,7.23l0.78 0 0 -157.75 -111.86 35.99z"/>
    <path class="fil0" d="M947.26 480.83l9.23 0c1.12,9.51 5.07,18.28 11.86,26.31 6.78,8.03 13.68,15.96 20.67,23.78 8.11,10.36 13.64,22.4 16.58,36.14 2.1,9.93 3.15,23.35 3.15,40.26l0 7.61c0,6.13 -0.21,12.26 -0.63,18.39l-6.92 0 0.63 -6.02 0 -8.88 0 -9.83c0,-11.2 -1.12,-19.66 -3.36,-25.36 -2.94,-7.18 -8.81,-14.26 -17.63,-21.24 -7.55,-5.71 -12.87,-10.67 -15.95,-14.9 -3.64,-4.86 -6.02,-10.67 -7.14,-17.43l-1.26 0 0 185.14c0,21.98 -4.34,39.31 -13.01,51.99 -8.67,12.68 -20.22,19.02 -34.63,19.02 -8.95,0 -16.02,-3.06 -21.2,-9.19 -5.18,-6.13 -7.76,-14.37 -7.76,-24.73 0,-18.39 5.39,-33.18 16.16,-44.38 9.23,-9.51 19.38,-14.27 30.43,-14.27 4.48,0 8.36,0.79 11.65,2.38 3.29,1.59 5.98,4.17 8.08,7.77l1.05 0 0 -222.55z"/>
   </g>
   <path class="fil0" d="M642.74 0c354.91,0 642.74,287.84 642.74,642.74 0,354.91 -287.84,642.75 -642.74,642.75 -354.91,0 -642.74,-287.84 -642.74,-642.75 0,-354.91 287.84,-642.74 642.74,-642.74zm0 31.85c337.33,0 610.9,273.58 610.9,610.9 0,337.34 -273.58,610.9 -610.9,610.9 -337.33,0 -610.9,-273.58 -610.9,-610.9 0,-337.33 273.58,-610.9 610.9,-610.9z"/>
  </g>
 </g>
</svg>
