<?xml version="1.0" encoding="UTF-8"?>
<!DOCTYPE svg PUBLIC "-//W3C//DTD SVG 1.1//EN" "http://www.w3.org/Graphics/SVG/1.1/DTD/svg11.dtd">
<!-- Creator: CorelDRAW -->
<svg xmlns="http://www.w3.org/2000/svg" xml:space="preserve" width="57.8858mm" height="57.8859mm" version="1.1" style="shape-rendering:geometricPrecision; text-rendering:geometricPrecision; image-rendering:optimizeQuality; fill-rule:evenodd; clip-rule:evenodd"
viewBox="0 0 2473.12 2473.13"
 xmlns:xlink="http://www.w3.org/1999/xlink"
 >
 <defs>
  <style type="text/css">
    .fil0 {fill:#076A6C}
  </style>
 </defs>
 <g id="Слой_x0020_1">
  <metadata id="CorelCorpID_0Corel-Layer"/>
  <g id="_2092514959072">
   <g>
    <path class="fil0" d="M1484.01 628.72l-43.49 -4.2c-10.4,-75.65 29.5,-123.9 40.81,-199.55 0.5,-3.35 0.4,-3.71 0.4,-0.07 0.07,72.87 28.02,119.38 2.29,203.82z"/>
    <path class="fil0" d="M1631.81 668.28l-39.81 -12.39c-1.81,-76.29 46.63,-119.4 71.03,-191.89 1.09,-3.22 1.04,-3.58 0.41,0 -12.72,71.75 7.44,131.6 -31.63,204.28z"/>
    <path class="fil0" d="M1839 758.94l-35.23 -22.93c20.23,-73.58 80.38,-99.97 124.63,-162.36 1.96,-2.77 2.18,-3.05 0.39,0.12 -37.01,65.19 -31.44,126.82 -89.79,185.18z"/>
    <polygon class="fil0" points="1440.89,626.15 1443.68,626.41 1430.87,777.23 1427.8,776.95 "/>
    <polygon class="fil0" points="1481.83,629.33 1484.62,629.67 1467.65,780.08 1464.59,779.71 "/>
    <polygon class="fil0" points="1591.65,658 1594.71,658.88 1555.43,804.98 1552.46,804.18 "/>
    <polygon class="fil0" points="1626.7,667.56 1629.76,668.44 1590.48,814.55 1587.51,813.75 "/>
    <polygon class="fil0" points="1802.18,739.24 1805.08,741.02 1726.3,870.16 1723.66,868.59 "/>
    <polygon class="fil0" points="1834.26,759.97 1836.91,761.73 1755.63,889.33 1753.03,887.68 "/>
    <path class="fil0" d="M1130.9 870.48c98.99,-0.02 191.33,13.56 274.74,36.7 -11.85,110.39 -19.58,220.09 -25.97,329.57 -52.13,9.24 -90.09,37.6 -90.09,71.16 0,41.04 56.8,74.33 126.84,74.33 70.04,0 126.84,-33.29 126.84,-74.33 0,-12.85 -5.56,-24.93 -15.36,-35.48 51.83,-77.75 102.37,-156.45 151.41,-236.28 107.57,78.34 172.01,172.49 177.42,254.65 7,106.36 -264.07,98.92 -348.89,138.84 -98.15,46.2 225.69,185.68 -102.12,229.85 -429.86,43.75 -867.13,-198.37 -912.23,-390.23 -45.1,-191.87 221.94,-398.71 637.4,-398.78zm133.41 68.4c52.47,2.97 93.33,35.23 91.25,72.05 -2.08,36.82 -46.32,64.28 -98.79,61.31 -52.47,-2.97 -93.33,-35.23 -91.25,-72.05 2.08,-36.82 46.32,-64.28 98.78,-61.31zm-254.82 -6.28c52.47,2.97 93.33,35.23 91.25,72.05 -2.08,36.82 -46.32,64.28 -98.78,61.31 -52.47,-2.97 -93.33,-35.23 -91.25,-72.05 2.08,-36.82 46.32,-64.28 98.78,-61.31zm-227.83 93.18c52.47,2.97 93.33,35.23 91.25,72.05 -2.08,36.82 -46.32,64.27 -98.78,61.31 -52.47,-2.97 -93.33,-35.23 -91.25,-72.05 2.08,-36.82 46.32,-64.28 98.79,-61.31zm-92.76 183.54c52.47,2.97 93.33,35.23 91.25,72.05 -2.08,36.82 -46.32,64.28 -98.79,61.31 -52.47,-2.97 -93.33,-35.23 -91.25,-72.05 2.08,-36.82 46.32,-64.27 98.79,-61.31zm178.39 164.95c52.47,2.97 93.33,35.23 91.25,72.05 -2.08,36.82 -46.32,64.28 -98.79,61.31 -52.47,-2.97 -93.33,-35.23 -91.25,-72.05 2.08,-36.82 46.32,-64.27 98.78,-61.31zm270.38 86.18c52.47,2.97 93.33,35.23 91.25,72.05 -2.08,36.82 -46.32,64.28 -98.78,61.31 -52.47,-2.97 -93.33,-35.23 -91.25,-72.05 2.08,-36.82 46.32,-64.27 98.78,-61.31zm510.97 -439.15l3.18 -4.19c5.08,3.35 10.06,6.73 14.97,10.15l-18.15 -5.96zm-221.13 -107.76c2.73,0.83 5.46,1.67 8.17,2.52l-31.53 230.29 23.36 -232.81z"/>
    <path class="fil0" d="M1427.45 779.4l40.51 3.36c-1.42,211.86 -27.19,403.97 -57.17,594.64 -12.31,-0.14 -23.01,-0.82 -35.59,-3.52 6.82,-202.07 22.44,-401.04 52.25,-594.49z"/>
    <path class="fil0" d="M1552.05 805.57l39.06 10.85c-43.37,188.53 -86.64,377.11 -149.08,557.88 -5.31,2.34 -15.97,3.76 -28.6,3.25 26.33,-201.44 74.88,-384.69 138.63,-571.97z"/>
    <path class="fil0" d="M1488.75 1234.8c73.31,-129.54 152.09,-249.64 232.45,-364 10.98,5.55 23.52,13.04 33.62,21 -91.53,171.47 -194.07,327.33 -301.41,481.71l-7.11 0 0 -3.32 42.45 -135.38z"/>
    <path class="fil0" d="M1464.93 925.71c-4.96,94.35 -12.63,186.69 -25.35,275.81 18.86,-89.58 40.03,-172.84 65.42,-260.78 -13.86,-5.63 -25.78,-10.1 -40.07,-15.03z"/>
    <path class="fil0" d="M1560.95 965.53c-26.68,93.24 -45.74,186.65 -71.95,264.35 44.37,-77.76 87.87,-151.88 137.17,-228.99 -12.74,-8.61 -55.31,-30.77 -65.22,-35.35z"/>
    <path class="fil0" d="M1294.91 1312.96c11.26,-27.17 33.9,-49.07 83.16,-58.67l-0.81 -11.04c-55.94,12.31 -83.39,35.54 -82.36,69.71z"/>
    <path class="fil0" d="M1235.63 1665.98c9.61,1.77 18.25,2.89 28.63,2.53 -22.08,54.9 -60.86,40.61 -28.63,-2.53z"/>
    <path class="fil0" d="M1330.72 1667.77c14.43,0.62 31.89,0.37 49.51,-1.18 -2.43,82.81 -41.47,93.63 -28.53,18.3l-9.95 37.14c-5.54,18.91 -42.61,24.85 -11.02,-54.26z"/>
   </g>
   <path class="fil0" d="M1236.56 0c682.8,0 1236.56,553.77 1236.56,1236.56 0,682.8 -553.77,1236.57 -1236.56,1236.57 -682.8,0 -1236.56,-553.77 -1236.56,-1236.57 0,-682.8 553.77,-1236.56 1236.56,-1236.56zm0 61.27c648.99,0 1175.3,526.33 1175.3,1175.29 0,648.99 -526.33,1175.3 -1175.3,1175.3 -648.99,0 -1175.3,-526.33 -1175.3,-1175.3 0,-648.99 526.33,-1175.29 1175.3,-1175.29z"/>
  </g>
 </g>
</svg>
