<?xml version="1.0" encoding="UTF-8"?>
<!DOCTYPE svg PUBLIC "-//W3C//DTD SVG 1.1//EN" "http://www.w3.org/Graphics/SVG/1.1/DTD/svg11.dtd">
<!-- Creator: CorelDRAW -->
<svg xmlns="http://www.w3.org/2000/svg" xml:space="preserve" width="57.8858mm" height="57.8859mm" version="1.1" style="shape-rendering:geometricPrecision; text-rendering:geometricPrecision; image-rendering:optimizeQuality; fill-rule:evenodd; clip-rule:evenodd"
viewBox="0 0 1358.57 1358.57"
 xmlns:xlink="http://www.w3.org/1999/xlink"
>
 <defs>
  <style type="text/css">
    .fil0 {fill:#076A6C}
    .fil1 {fill:#A75F4A;fill-rule:nonzero}
  </style>
 </defs>
 <g id="Слой_x0020_1">
  <metadata id="CorelCorpID_0Corel-Layer"/>
  <g id="_2128104250688">
   <path class="fil0" d="M657.29 947.17l0 -0.06c-21.88,-24.2 -85.9,-21.25 -55.15,42.93 1.92,8.43 -1.04,13.99 -6.77,17.96 -30.77,-46.04 -30.24,-76.67 0.12,-96.16 19.74,-9.88 43.16,-9.89 63.18,0.92l12.31 -399.34 0 0 0 -0.14 1.87 -60.47 0 0 0.04 -1.88 3.91 -128.23 -12.67 -13.97 1.36 -10.77c-2.75,0.02 -4.57,0.67 -7.39,3.37 -6.25,6.14 -8.65,1.65 -8.21,-5.69 -5.93,-1.98 -4.87,-6.69 0.07,-8.43 1,-10.21 5.94,-8.06 10.51,-0.54 1.57,1.69 3.62,2.64 6.07,3.01l0.69 -5.5 -4.21 -0.05 0.3 -8.16 4.93 0.11 1.4 -11.12 -2.86 -0.08c-3.13,-0.08 -5,0.45 -8.04,3.38 -6.25,6.12 -8.65,1.65 -8.21,-5.68 -5.93,-1.98 -4.87,-6.7 0.07,-8.43 1,-10.21 5.94,-8.07 10.51,-0.55 2.08,2.25 5.02,3.2 8.6,3.19l0.95 0.02 0.86 -6.82c-2.95,-0.06 -5.72,-0.1 -8.19,-0.12l0.45 -8.15 8.75 0.19 1.23 -9.77 -2.11 -0.06c-3.13,-0.07 -5,0.46 -8.03,3.37 -6.25,6.14 -8.64,1.65 -8.22,-5.67 -5.93,-2 -4.85,-6.69 0.08,-8.44 0.99,-10.19 5.94,-8.06 10.52,-0.55 2.08,2.27 5.02,3.18 8.59,3.21l0.2 0 1.36 -10.81c0.89,-3.7 8.35,-4.68 8.24,0.73l0.02 4.18 14.93 0.45 0.09 -4.42c-0.5,-3.65 7.27,-5.61 7.58,0.05l0.44 10.39 5.18 0.09 0.02 8.13c-1.6,-0.05 -3.21,-0.1 -4.86,-0.14l0.42 10.02 0.2 0c3.56,0.15 6.55,-0.64 8.7,-2.85 4.88,-7.32 9.89,-9.23 10.5,0.96 4.86,1.93 5.74,6.71 -0.25,8.47 0.13,7.29 -2.47,11.72 -8.45,5.3 -2.9,-3.04 -4.76,-3.64 -7.89,-3.66l-2.47 -0.03 0.28 6.61 5.48 0.09 0.12 8.14c-1.64,-0.06 -3.39,-0.1 -5.26,-0.15l0.48 11.36 1.83 0.04c3.56,0.15 6.56,-0.63 8.69,-2.85 4.9,-7.29 9.91,-9.22 10.52,0.97 4.85,1.96 5.71,6.71 -0.25,8.47 0.12,7.3 -2.47,11.71 -8.45,5.3 -2.9,-3.02 -4.76,-3.62 -7.89,-3.68l-4.1 -0.06 0.23 5.45 5.77 0.1 0.03 8.13c-1.66,-0.06 -3.49,-0.11 -5.46,-0.15l0.36 8.59 -9.99 10.85 0.12 595.1c20.39,-9.81 44.16,-8.65 63.4,1.98 29.55,20.68 28.84,51.31 -3.72,96.09 -5.57,-4.2 -8.31,-9.86 -6.04,-18.21 33.15,-62.67 -30.51,-68.65 -53.57,-45.37 0.37,3.19 1.26,16.48 1.26,16.48 7.75,17.88 30.51,34.71 51.1,54.97 113.99,137.51 -77.27,226.72 -153.44,150.44 -31.72,-31.81 -57.96,-99.45 14.38,-161.16 18.85,-12.62 33.32,-30.7 40.08,-46.69 0.92,-2.1 1.86,-12.83 2.47,-14.85l0.27 0.27zm17.06 -527.67l0.04 -1.88 -0.16 -0 -0.04 1.88 0.16 0zm-11.19 364.72l0.04 -1.89 -0.02 0 -0.04 1.89 0.02 0zm13.13 -431.45l-0.04 1.87 0.04 -1.87zm6.26 -129.62l-0.09 1.04 0.09 -1.04z"/>
   <path class="fil0" d="M679.29 0c375.08,0 679.29,304.2 679.29,679.29 0,375.09 -304.2,679.29 -679.29,679.29 -375.08,0 -679.29,-304.2 -679.29,-679.29 0,-375.08 304.2,-679.29 679.29,-679.29zm0 33.66c356.51,0 645.63,289.13 645.63,645.63 0,356.51 -289.13,645.63 -645.63,645.63 -356.51,0 -645.63,-289.13 -645.63,-645.63 0,-356.51 289.13,-645.63 645.63,-645.63z"/>
   <path class="fil0" d="M330.08 1014.95c-17.22,-48.73 8.97,-66.95 -13.06,-103.63 -26.22,-25.63 -47.9,-43.96 -42.61,-72.48 4.81,-24.18 15.18,-34.96 37.08,-47.76l-100.93 -184.59c-3.31,-5.39 -7.9,-10.25 -13.69,-14.59l-3.35 -5.97 -1.9 1.07 0.96 1.72 -2.05 1.15 -5.1 -9.11 2.05 -1.15 0.96 1.72 1.9 -1.07 -7.23 -12.9 -1.9 1.06 0.96 1.72 -2.05 1.15 -5.1 -9.11 2.05 -1.15 0.96 1.72 1.9 -1.07 -6.96 -12.42 -1.9 1.06 0.96 1.72 -2.05 1.15 -5.1 -9.11 2.05 -1.15 0.96 1.72 1.9 -1.07 -11.73 -20.93 1.12 -0.63c-0.74,-3.95 1.27,-8.26 5.25,-10.49 0.14,-0.08 0.27,-0.15 0.42,-0.22 0.21,-3.91 2.53,-7.75 6.42,-9.93 3.92,-2.2 8.44,-2.15 11.9,-0.25 0.37,-0.27 0.76,-0.53 1.17,-0.76 3.98,-2.23 8.71,-1.7 11.69,1l1.36 -0.76 11.89 20.84 2.41 -1.35 -0.96 -1.72 2.05 -1.15 5.1 9.11 -2.05 1.15 -0.96 -1.72 -2.36 1.33 7.06 12.37 2.27 -1.27 -0.96 -1.72 2.05 -1.15 5.1 9.11 -2.05 1.15 -0.96 -1.72 -2.22 1.25 7.33 12.85 2.13 -1.19 -0.96 -1.72 2.05 -1.15 5.1 9.11 -2.05 1.15 -0.96 -1.72 -2.09 1.17 2.7 4.73c-1.75,7.64 0.15,15.39 4.66,23.21l105.17 180.71 0.74 -0.4c42.46,-24.29 88.79,-7.36 96.03,38.19 3.57,68.23 56.81,49.65 92.62,102.6 68.22,94.18 -146.95,235.92 -205.15,102.3zm17.13 -130.61c-9.11,-16.26 -3.32,-36.82 12.94,-45.94 16.26,-9.11 36.82,-3.32 45.93,12.94 9.11,16.26 3.32,36.82 -12.94,45.93 -16.26,9.11 -36.82,3.32 -45.93,-12.94zm35.43 120.72l-7.84 -13.99 102.77 -57.6 7.84 13.99 -102.77 57.6zm-41.45 -117.34c-10.98,-19.59 -4,-44.36 15.58,-55.34 19.59,-10.98 44.36,-4 55.34,15.59 10.98,19.59 4,44.36 -15.59,55.33 -19.58,10.98 -44.36,4 -55.33,-15.58zm-137.47 -363.15l-9.53 5.34 -0.64 -1.15c-1.47,-2.62 -0.53,-5.96 2.09,-7.43l0 0c2.62,-1.47 5.97,-0.53 7.44,2.09l0.64 1.15zm-20.26 11.36l-9.53 5.34 -0.64 -1.15c-1.47,-2.62 -0.53,-5.97 2.09,-7.44l0 0c2.62,-1.47 5.97,-0.53 7.44,2.09l0.64 1.15zm-6.35 11.01l9.53 -5.34 6.96 12.42 -9.53 5.34 -6.96 -12.42zm20.27 -11.36l9.53 -5.34 6.96 12.42 -9.53 5.34 -6.96 -12.42zm-10.12 29.45l9.53 -5.34 7.23 12.9 -9.53 5.34 -7.23 -12.91zm20.26 -11.36l9.53 -5.34 7.23 12.9 -9.53 5.34 -7.23 -12.91zm-9.85 29.93l9.53 -5.34 0.78 1.39c1.47,2.62 0.53,5.97 -2.1,7.44l0 0c-2.62,1.47 -5.97,0.53 -7.44,-2.09l-0.78 -1.39zm20.26 -11.36l9.53 -5.34 0.78 1.39c1.47,2.62 0.53,5.97 -2.09,7.44l0 0c-2.62,1.47 -5.97,0.53 -7.43,-2.09l-0.78 -1.39zm164.05 435.57l-10.08 -17.97 105.9 -59.36 10.07 17.98 -105.9 59.36z"/>
   <g>
    <path class="fil1" d="M1094.4 594.01l11.08 5.25 -0.17 0.36 -11.08 -5.25 -0.24 -0.34 0.41 -0.03zm-0.17 0.36l-0.33 -0.15 0.09 -0.18 0.24 0.34zm11.02 -22.32l-10.61 22.29 -0.65 -0.31 10.61 -22.29 0.41 -0.03 0.24 0.34zm-0.65 -0.31l0.08 -0.18 0.32 0.15 -0.41 0.03zm11.75 5.51l-0.65 -0.31 0.24 0.34 -0.68 -0.32 -0.69 -0.32 -0.69 -0.32 -0.69 -0.32 -0.69 -0.33 -0.69 -0.33 -0.7 -0.33 -0.7 -0.33 -0.7 -0.33 -0.7 -0.33 -0.7 -0.33 -0.7 -0.33 -0.7 -0.33 -0.69 -0.32 -0.69 -0.32 -0.69 -0.32 0.16 -0.37 0.69 0.32 0.69 0.32 0.69 0.32 0.7 0.33 0.7 0.33 0.7 0.33 0.7 0.33 0.7 0.33 0.7 0.33 0.7 0.33 0.69 0.33 0.69 0.33 0.69 0.32 0.69 0.32 0.68 0.32 0.69 0.32 0.24 0.34zm-0.24 -0.34l0.33 0.15 -0.09 0.18 -0.24 -0.34zm-4.49 8.6l4.08 -8.58 0.65 0.31 -4.08 8.58 -0.41 0.03 -0.24 -0.34zm0.65 0.31l-0.09 0.18 -0.32 -0.15 0.41 -0.03zm-6.81 -3.48l6.57 3.14 -0.17 0.36 -6.57 -3.14 -0.23 -0.34 0.41 -0.02zm-0.41 0.02l0.09 -0.18 0.32 0.15 -0.41 0.02zm-3.27 6.25l3.27 -6.25 0.64 0.31 -3.27 6.25 -0.4 0.03 -0.24 -0.34zm0.24 0.34l-0.34 -0.16 0.1 -0.19 0.24 0.34zm7.24 3.18l-0.65 -0.31 0.24 0.34 -0.46 -0.22 -0.46 -0.22 -0.45 -0.21 -0.45 -0.21 -0.44 -0.21 -0.44 -0.21 -0.44 -0.2 -0.43 -0.2 -0.43 -0.2 -0.42 -0.2 -0.42 -0.19 -0.41 -0.19 -0.4 -0.19 -0.4 -0.19 -0.39 -0.18 -0.39 -0.18 0.15 -0.37 0.39 0.18 0.39 0.19 0.4 0.19 0.41 0.19 0.41 0.19 0.42 0.19 0.42 0.2 0.43 0.2 0.43 0.2 0.44 0.2 0.44 0.21 0.44 0.21 0.45 0.21 0.45 0.21 0.46 0.22 0.46 0.22 0.24 0.34zm-0.24 -0.34l0.32 0.15 -0.09 0.18 -0.24 -0.34zm-3.96 7.48l3.55 -7.45 0.65 0.31 -3.55 7.45 -0.41 0.03 -0.24 -0.34zm0.65 0.31l-0.08 0.18 -0.32 -0.15 0.41 -0.03zm-144.57 264.19l0.65 0.3 0 0 -0.04 0.1 -0.05 0.11 -0.04 0.1 -0.05 0.1 -0.04 0.1 -0.05 0.1 -0.04 0.1 -0.05 0.1 -0.04 0.1 -0.04 0.1 -0.05 0.11 -0.04 0.1 -0.05 0.1 -0.04 0.1 -0.05 0.1 -0.04 0.1 -0.65 -0.31 0.04 -0.1 0.05 -0.1 0.04 -0.1 0.05 -0.1 0.04 -0.1 0.05 -0.1 0.04 -0.1 0.04 -0.1 0.05 -0.1 0.04 -0.1 0.05 -0.1 0.04 -0.1 0.05 -0.1 0.04 -0.1 0.05 -0.11 0.04 -0.1 0 0zm0 0l0 0 0 0 0 0zm114.76 -228.29l-0.17 0.36 0.41 -0.03 -0.36 0.73 -0.98 1.97 -1.56 3.13 -2.1 4.2 -5.65 11.29 -7.31 14.6 -8.64 17.24 -9.63 19.23 -10.3 20.55 -10.63 21.21 -10.63 21.21 -10.3 20.55 -9.64 19.22 -8.64 17.24 -7.31 14.6 -5.65 11.29 -2.1 4.2 -1.56 3.12 -0.98 1.97 -0.36 0.72 -0.65 -0.3 0.36 -0.73 0.98 -1.97 1.56 -3.12 2.1 -4.2 5.65 -11.29 7.31 -14.6 8.64 -17.24 9.64 -19.22 10.3 -20.55 10.63 -21.21 10.63 -21.21 10.3 -20.55 9.63 -19.23 8.64 -17.24 7.31 -14.6 5.65 -11.29 2.1 -4.2 1.56 -3.13 0.98 -1.97 0.35 -0.73 0.41 -0.03zm-0.41 0.03l0.08 -0.19 0.33 0.16 -0.41 0.03zm1.87 1.11l-1.63 -0.78 0.17 -0.36 1.63 0.78 0.23 0.34 -0.41 0.03zm0.41 -0.03l-0.09 0.18 -0.32 -0.15 0.41 -0.03zm-0.36 -22.7l0.65 0.31 -0.04 -0.18 0.42 0.61 0.39 0.61 0.36 0.62 0.33 0.63 0.3 0.64 0.27 0.65 0.24 0.65 0.21 0.66 0.18 0.66 0.15 0.67 0.12 0.68 0.1 0.68 0.07 0.69 0.04 0.69 0.02 0.7 -0.01 0.7 -0.04 0.71 -0.06 0.72 -0.08 0.72 -0.11 0.73 -0.14 0.73 -0.16 0.74 -0.18 0.75 -0.21 0.75 -0.23 0.76 -0.25 0.76 -0.27 0.77 -0.3 0.77 -0.32 0.78 -0.34 0.78 -0.36 0.79 -0.38 0.79 -0.64 -0.31 0.38 -0.79 0.36 -0.79 0.34 -0.78 0.32 -0.77 0.3 -0.77 0.27 -0.76 0.25 -0.75 0.23 -0.75 0.2 -0.74 0.18 -0.74 0.16 -0.73 0.13 -0.73 0.11 -0.72 0.08 -0.71 0.06 -0.71 0.03 -0.7 0.01 -0.69 -0.01 -0.69 -0.04 -0.68 -0.07 -0.68 -0.1 -0.67 -0.12 -0.66 -0.15 -0.65 -0.18 -0.65 -0.2 -0.64 -0.23 -0.63 -0.26 -0.63 -0.29 -0.62 -0.31 -0.61 -0.35 -0.6 -0.38 -0.6 -0.4 -0.59 -0.04 -0.18zm0.04 0.18l-0.07 -0.1 0.04 -0.08 0.04 0.18zm8.35 -16.11l-7.73 16.24 -0.65 -0.31 7.73 -16.24 0.41 -0.03 0.24 0.34zm-0.24 -0.34l0.33 0.15 -0.09 0.18 -0.24 -0.34zm-9.27 -3.96l0.18 -0.36 -0 0 0.49 0.23 0.5 0.24 0.51 0.25 0.52 0.25 0.53 0.26 0.55 0.26 0.56 0.27 0.57 0.27 0.58 0.27 0.59 0.28 0.6 0.28 0.61 0.28 0.61 0.29 0.62 0.29 0.63 0.3 0.64 0.3 -0.16 0.37 -0.64 -0.3 -0.63 -0.3 -0.62 -0.29 -0.61 -0.29 -0.61 -0.29 -0.6 -0.28 -0.59 -0.28 -0.58 -0.27 -0.57 -0.27 -0.56 -0.27 -0.55 -0.26 -0.54 -0.26 -0.52 -0.25 -0.51 -0.25 -0.5 -0.24 -0.49 -0.24 -0 0zm-7.18 -0.17l-0.48 -0.45 0 0 0.32 -0.11 0.31 -0.1 0.3 -0.09 0.29 -0.09 0.28 -0.08 0.28 -0.07 0.27 -0.06 0.26 -0.05 0.26 -0.04 0.25 -0.04 0.25 -0.03 0.24 -0.02 0.24 -0.01 0.23 -0.01 0.23 0 0.23 0.01 0.23 0.01 0.23 0.02 0.23 0.03 0.23 0.04 0.22 0.04 0.22 0.05 0.22 0.06 0.23 0.07 0.22 0.07 0.22 0.08 0.22 0.08 0.23 0.09 0.23 0.1 0.23 0.1 0.23 0.11 0.23 0.11 -0.18 0.36 -0.22 -0.1 -0.21 -0.1 -0.21 -0.09 -0.2 -0.09 -0.2 -0.08 -0.2 -0.08 -0.2 -0.07 -0.19 -0.06 -0.19 -0.06 -0.19 -0.05 -0.19 -0.04 -0.19 -0.04 -0.19 -0.03 -0.19 -0.03 -0.19 -0.02 -0.2 -0.01 -0.2 -0.01 -0.21 0 -0.21 0.01 -0.22 0.01 -0.22 0.02 -0.23 0.03 -0.24 0.04 -0.24 0.04 -0.25 0.05 -0.26 0.06 -0.27 0.07 -0.27 0.08 -0.29 0.08 -0.29 0.09 -0.3 0.1 -0.31 0.11 0 0zm-0.48 -0.45l0 0 -0.09 0.03 0.09 -0.03zm-4.47 -7.08l0.47 -0.16 0.09 0.24 -0.27 0.52 -0.24 0.51 -0.23 0.5 -0.2 0.49 -0.18 0.48 -0.16 0.47 -0.14 0.45 -0.11 0.44 -0.09 0.42 -0.07 0.4 -0.04 0.38 -0.01 0.37 0.01 0.34 0.04 0.32 0.06 0.29 0.09 0.27 0.11 0.23 0.13 0.2 0.15 0.17 0.16 0.14 0.18 0.11 0.21 0.09 0.25 0.08 0.3 0.05 0.35 0.03 0.39 -0 0.43 -0.03 0.48 -0.07 0.52 -0.11 0.56 -0.14 0.6 -0.18 0.64 -0.22 0.48 0.45 -0.65 0.23 -0.62 0.19 -0.58 0.15 -0.55 0.11 -0.51 0.07 -0.48 0.04 -0.45 0 -0.43 -0.04 -0.4 -0.08 -0.38 -0.12 -0.36 -0.16 -0.32 -0.2 -0.27 -0.23 -0.23 -0.26 -0.18 -0.28 -0.14 -0.29 -0.11 -0.31 -0.07 -0.33 -0.04 -0.35 -0.01 -0.37 0.02 -0.38 0.04 -0.4 0.07 -0.42 0.09 -0.43 0.11 -0.45 0.14 -0.46 0.16 -0.47 0.19 -0.49 0.21 -0.5 0.23 -0.51 0.25 -0.52 0.27 -0.53 0.09 0.24zm0.47 -0.16l0.14 0.13 -0.06 0.11 -0.09 -0.24zm2.52 -6.72l0.64 0.32 -0.21 0.08 -0.39 -0.02 -0.38 -0 -0.37 0.02 -0.36 0.04 -0.35 0.05 -0.33 0.07 -0.31 0.09 -0.3 0.11 -0.28 0.12 -0.26 0.14 -0.25 0.15 -0.22 0.17 -0.2 0.18 -0.18 0.19 -0.16 0.21 -0.14 0.22 -0.11 0.23 -0.09 0.24 -0.06 0.25 -0.04 0.26 -0.01 0.27 0.02 0.27 0.04 0.28 0.07 0.29 0.11 0.3 0.13 0.3 0.16 0.31 0.2 0.31 0.23 0.32 0.26 0.32 0.3 0.32 0.34 0.33 -0.47 0.16 -0.37 -0.36 -0.33 -0.36 -0.29 -0.36 -0.25 -0.35 -0.22 -0.35 -0.18 -0.34 -0.15 -0.34 -0.12 -0.33 -0.08 -0.32 -0.05 -0.31 -0.02 -0.3 0.01 -0.3 0.04 -0.28 0.07 -0.27 0.1 -0.26 0.12 -0.25 0.15 -0.24 0.17 -0.22 0.2 -0.21 0.22 -0.19 0.25 -0.18 0.27 -0.16 0.29 -0.15 0.31 -0.13 0.33 -0.12 0.34 -0.1 0.36 -0.08 0.38 -0.06 0.39 -0.04 0.41 -0.02 0.42 0 0.44 0.02 -0.21 0.08zm0.64 0.32l-0.05 0.09 -0.16 -0.01 0.21 -0.08zm8.51 3.22l-0.65 -0.1 -0.01 -0.03 -0.09 -0.69 -0.11 -0.67 -0.12 -0.64 -0.13 -0.61 -0.14 -0.58 -0.15 -0.55 -0.16 -0.52 -0.18 -0.48 -0.19 -0.44 -0.2 -0.41 -0.2 -0.37 -0.21 -0.33 -0.22 -0.28 -0.22 -0.23 -0.21 -0.19 -0.2 -0.14 -0.2 -0.1 -0.2 -0.06 -0.22 -0.03 -0.25 0.01 -0.28 0.05 -0.3 0.1 -0.31 0.15 -0.33 0.2 -0.34 0.26 -0.36 0.32 -0.36 0.37 -0.38 0.43 -0.38 0.5 -0.39 0.56 -0.4 0.62 -0.41 0.68 -0.64 -0.32 0.41 -0.69 0.41 -0.63 0.4 -0.57 0.39 -0.5 0.38 -0.45 0.38 -0.38 0.37 -0.33 0.36 -0.27 0.36 -0.22 0.36 -0.17 0.35 -0.12 0.36 -0.06 0.37 -0.01 0.38 0.06 0.38 0.12 0.36 0.18 0.33 0.23 0.3 0.26 0.27 0.3 0.26 0.33 0.24 0.37 0.22 0.4 0.21 0.43 0.2 0.47 0.18 0.5 0.17 0.53 0.16 0.56 0.15 0.59 0.13 0.62 0.12 0.65 0.11 0.67 0.09 0.7 -0.01 -0.03zm-0.65 -0.1l-0 -0.01 -0 -0.02 0.01 0.03zm6.04 5.45l-0.17 0.36 0.01 0.01 -0.27 -0.12 -0.27 -0.13 -0.26 -0.13 -0.26 -0.13 -0.25 -0.14 -0.24 -0.14 -0.24 -0.15 -0.24 -0.15 -0.23 -0.15 -0.23 -0.16 -0.22 -0.16 -0.22 -0.16 -0.21 -0.17 -0.2 -0.17 -0.19 -0.18 -0.19 -0.18 -0.19 -0.18 -0.18 -0.19 -0.17 -0.19 -0.16 -0.19 -0.16 -0.2 -0.15 -0.2 -0.15 -0.21 -0.14 -0.21 -0.13 -0.21 -0.13 -0.22 -0.12 -0.22 -0.11 -0.23 -0.11 -0.23 -0.1 -0.23 -0.09 -0.24 -0.08 -0.24 0.65 0.1 0.08 0.23 0.08 0.22 0.09 0.22 0.1 0.21 0.11 0.21 0.11 0.21 0.12 0.2 0.12 0.2 0.13 0.19 0.13 0.19 0.14 0.18 0.15 0.18 0.15 0.18 0.16 0.17 0.16 0.17 0.17 0.16 0.17 0.16 0.18 0.16 0.19 0.15 0.19 0.15 0.2 0.15 0.2 0.15 0.2 0.14 0.21 0.14 0.21 0.14 0.22 0.13 0.23 0.13 0.23 0.13 0.23 0.12 0.24 0.12 0.25 0.12 0.25 0.12 0.01 0.01zm-0.01 -0.01l0.01 0.01 -0.12 -0.06 0.12 0.05zm6.75 3.64l-6.91 -3.27 0.17 -0.36 6.91 3.27 0.24 0.34 -0.41 0.03zm0.41 -0.03l-0.08 0.18 -0.32 -0.15 0.41 -0.03zm10.6 -22.27l-10.6 22.27 -0.65 -0.31 10.6 -22.27 0.41 -0.03 0.24 0.34zm-0.24 -0.34l0.33 0.15 -0.09 0.18 -0.24 -0.34zm-9.27 -3.96l0.18 -0.36 0 0 0.48 0.23 0.5 0.24 0.51 0.24 0.52 0.25 0.53 0.26 0.55 0.26 0.56 0.27 0.57 0.27 0.58 0.27 0.59 0.28 0.6 0.28 0.61 0.28 0.61 0.29 0.62 0.29 0.63 0.3 0.63 0.3 -0.16 0.37 -0.64 -0.3 -0.63 -0.3 -0.62 -0.29 -0.61 -0.29 -0.61 -0.28 -0.6 -0.28 -0.59 -0.28 -0.58 -0.27 -0.57 -0.27 -0.56 -0.27 -0.55 -0.26 -0.54 -0.26 -0.52 -0.25 -0.51 -0.24 -0.5 -0.24 -0.49 -0.23 0 0zm-7.18 -0.17l-0.48 -0.45 0 0 0.32 -0.11 0.31 -0.1 0.3 -0.09 0.29 -0.09 0.28 -0.08 0.27 -0.07 0.27 -0.06 0.26 -0.05 0.26 -0.04 0.25 -0.04 0.25 -0.03 0.24 -0.02 0.24 -0.01 0.24 -0.01 0.23 0 0.23 0.01 0.23 0.02 0.23 0.02 0.23 0.03 0.22 0.04 0.22 0.04 0.23 0.05 0.22 0.06 0.22 0.07 0.23 0.07 0.22 0.08 0.22 0.08 0.23 0.09 0.23 0.09 0.23 0.1 0.23 0.1 0.23 0.11 -0.18 0.36 -0.22 -0.1 -0.22 -0.1 -0.21 -0.09 -0.2 -0.08 -0.2 -0.08 -0.2 -0.07 -0.2 -0.07 -0.19 -0.06 -0.19 -0.06 -0.19 -0.05 -0.19 -0.04 -0.19 -0.04 -0.19 -0.03 -0.19 -0.03 -0.2 -0.02 -0.2 -0.02 -0.2 -0.01 -0.21 0 -0.21 0.01 -0.22 0.01 -0.22 0.02 -0.23 0.03 -0.24 0.04 -0.24 0.04 -0.25 0.05 -0.26 0.06 -0.27 0.07 -0.27 0.08 -0.28 0.08 -0.29 0.09 -0.3 0.1 -0.31 0.11 0 0zm-0.48 -0.45l0 0 -0.1 0.04 0.1 -0.04zm-4.47 -7.09l0.47 -0.16 0.09 0.24 -0.27 0.52 -0.24 0.51 -0.23 0.5 -0.2 0.49 -0.18 0.48 -0.16 0.47 -0.14 0.45 -0.12 0.44 -0.09 0.42 -0.07 0.4 -0.04 0.38 -0.01 0.36 0.01 0.35 0.04 0.32 0.06 0.29 0.09 0.27 0.11 0.23 0.13 0.2 0.15 0.17 0.16 0.13 0.18 0.11 0.2 0.09 0.25 0.08 0.3 0.05 0.35 0.03 0.39 0 0.43 -0.03 0.48 -0.07 0.51 -0.11 0.56 -0.15 0.6 -0.18 0.64 -0.22 0.48 0.45 -0.65 0.23 -0.62 0.19 -0.58 0.15 -0.55 0.11 -0.51 0.07 -0.48 0.04 -0.46 0 -0.42 -0.04 -0.41 -0.08 -0.38 -0.12 -0.36 -0.16 -0.32 -0.2 -0.28 -0.24 -0.23 -0.26 -0.18 -0.27 -0.14 -0.29 -0.1 -0.31 -0.07 -0.33 -0.04 -0.35 -0.02 -0.36 0.02 -0.38 0.04 -0.4 0.07 -0.42 0.09 -0.43 0.12 -0.45 0.14 -0.46 0.16 -0.47 0.19 -0.49 0.21 -0.5 0.23 -0.51 0.25 -0.52 0.27 -0.53 0.09 0.24zm0.47 -0.16l0.14 0.13 -0.06 0.11 -0.09 -0.24zm2.52 -6.72l0.64 0.32 -0.21 0.08 -0.4 -0.02 -0.38 -0 -0.37 0.02 -0.36 0.04 -0.35 0.05 -0.33 0.07 -0.31 0.09 -0.3 0.11 -0.28 0.12 -0.26 0.14 -0.25 0.15 -0.22 0.17 -0.2 0.18 -0.18 0.19 -0.16 0.21 -0.14 0.22 -0.11 0.23 -0.09 0.24 -0.06 0.25 -0.04 0.26 -0.01 0.27 0.02 0.27 0.04 0.28 0.07 0.29 0.11 0.3 0.13 0.3 0.16 0.31 0.2 0.31 0.23 0.32 0.26 0.32 0.3 0.32 0.34 0.33 -0.47 0.16 -0.37 -0.36 -0.33 -0.36 -0.29 -0.36 -0.25 -0.35 -0.22 -0.35 -0.18 -0.34 -0.15 -0.34 -0.12 -0.33 -0.08 -0.32 -0.05 -0.31 -0.02 -0.3 0.01 -0.3 0.04 -0.28 0.07 -0.27 0.1 -0.26 0.12 -0.25 0.15 -0.24 0.17 -0.22 0.2 -0.21 0.22 -0.19 0.25 -0.18 0.27 -0.17 0.29 -0.15 0.31 -0.13 0.33 -0.12 0.34 -0.1 0.36 -0.08 0.38 -0.06 0.39 -0.04 0.41 -0.02 0.42 0 0.43 0.02 -0.21 0.08zm0.64 0.32l-0.05 0.09 -0.16 -0.01 0.21 -0.08zm8.51 3.22l-0.65 -0.1 -0.01 -0.03 -0.09 -0.69 -0.11 -0.67 -0.12 -0.64 -0.13 -0.61 -0.14 -0.58 -0.15 -0.55 -0.16 -0.51 -0.18 -0.48 -0.19 -0.45 -0.2 -0.41 -0.2 -0.37 -0.21 -0.33 -0.22 -0.28 -0.22 -0.23 -0.21 -0.19 -0.2 -0.14 -0.2 -0.1 -0.2 -0.06 -0.22 -0.03 -0.25 0 -0.28 0.05 -0.3 0.1 -0.31 0.15 -0.33 0.2 -0.34 0.26 -0.36 0.31 -0.36 0.38 -0.38 0.43 -0.38 0.5 -0.39 0.56 -0.4 0.62 -0.41 0.68 -0.64 -0.32 0.41 -0.69 0.41 -0.63 0.4 -0.57 0.39 -0.5 0.38 -0.45 0.38 -0.38 0.37 -0.33 0.36 -0.27 0.36 -0.22 0.36 -0.17 0.35 -0.12 0.36 -0.06 0.36 -0 0.38 0.05 0.38 0.12 0.36 0.18 0.33 0.22 0.31 0.27 0.27 0.3 0.26 0.33 0.24 0.36 0.22 0.4 0.21 0.43 0.2 0.47 0.18 0.5 0.17 0.53 0.16 0.56 0.15 0.59 0.13 0.62 0.12 0.65 0.11 0.67 0.09 0.7 -0.01 -0.03zm-0.65 -0.1l-0 -0.01 -0 -0.02 0.01 0.03zm6.04 5.45l-0.17 0.36 0.01 0.01 -0.27 -0.12 -0.27 -0.13 -0.26 -0.13 -0.26 -0.13 -0.25 -0.14 -0.24 -0.14 -0.24 -0.15 -0.24 -0.15 -0.23 -0.15 -0.23 -0.16 -0.22 -0.16 -0.22 -0.16 -0.21 -0.17 -0.2 -0.17 -0.19 -0.18 -0.19 -0.18 -0.19 -0.18 -0.18 -0.19 -0.17 -0.19 -0.16 -0.19 -0.16 -0.2 -0.15 -0.2 -0.15 -0.21 -0.14 -0.21 -0.13 -0.21 -0.13 -0.22 -0.12 -0.22 -0.11 -0.23 -0.11 -0.23 -0.1 -0.23 -0.09 -0.24 -0.08 -0.24 0.65 0.1 0.08 0.23 0.08 0.22 0.09 0.22 0.1 0.22 0.11 0.21 0.11 0.21 0.12 0.2 0.12 0.2 0.13 0.19 0.13 0.19 0.14 0.19 0.15 0.18 0.15 0.18 0.16 0.17 0.16 0.17 0.17 0.16 0.17 0.16 0.18 0.16 0.19 0.15 0.19 0.15 0.19 0.15 0.2 0.15 0.21 0.14 0.21 0.14 0.21 0.14 0.22 0.13 0.23 0.13 0.23 0.13 0.23 0.12 0.24 0.12 0.25 0.12 0.25 0.12 0.01 0.01zm-0.01 -0.01l0.01 0.01 -0.12 -0.06 0.12 0.05zm6.75 3.64l-6.91 -3.27 0.17 -0.36 6.91 3.27 0.24 0.34 -0.41 0.03zm0.41 -0.03l-0.08 0.18 -0.32 -0.15 0.41 -0.03zm22.5 -47.27l-22.5 47.27 -0.65 -0.31 22.5 -47.27 0.17 -0.08 0.48 0.39zm-0.65 -0.31l0.04 -0.08 0.13 -0 -0.17 0.08zm29.33 -20.56l-0.17 0.36 0.41 -0.03 -0.54 1.07 -0.58 1.05 -0.61 1.04 -0.65 1.02 -0.69 1 -0.72 0.98 -0.75 0.96 -0.79 0.93 -0.81 0.91 -0.84 0.88 -0.87 0.85 -0.89 0.83 -0.91 0.8 -0.93 0.77 -0.95 0.74 -0.97 0.71 -0.99 0.68 -1 0.64 -1.01 0.6 -1.03 0.57 -1.03 0.53 -1.04 0.5 -1.05 0.45 -1.05 0.41 -1.06 0.37 -1.05 0.33 -1.06 0.28 -1.05 0.24 -1.05 0.19 -1.05 0.15 -1.04 0.1 -1.03 0.05 -0.31 -0.47 1 -0.05 1.01 -0.09 1.02 -0.14 1.03 -0.19 1.04 -0.23 1.04 -0.28 1.04 -0.32 1.04 -0.37 1.04 -0.41 1.04 -0.45 1.03 -0.49 1.02 -0.53 1.02 -0.57 1 -0.6 0.99 -0.64 0.98 -0.67 0.96 -0.7 0.95 -0.73 0.92 -0.77 0.91 -0.8 0.88 -0.82 0.86 -0.85 0.84 -0.88 0.81 -0.9 0.78 -0.92 0.75 -0.95 0.72 -0.97 0.68 -0.99 0.65 -1.01 0.61 -1.03 0.57 -1.04 0.53 -1.07 0.41 -0.03zm-0.41 0.03l0.09 -0.18 0.32 0.15 -0.41 0.03zm14.13 6.95l-13.89 -6.61 0.17 -0.36 13.89 6.61 0.24 0.34 -0.41 0.03zm0.17 -0.36l0.32 0.15 -0.09 0.18 -0.24 -0.34zm2.53 35.73l-0.65 -0.31 0.02 0.15 -0.58 -1.01 -0.55 -1.02 -0.53 -1.03 -0.5 -1.04 -0.47 -1.04 -0.45 -1.05 -0.41 -1.06 -0.38 -1.06 -0.35 -1.07 -0.32 -1.08 -0.29 -1.08 -0.26 -1.09 -0.22 -1.09 -0.19 -1.1 -0.16 -1.11 -0.12 -1.11 -0.08 -1.12 -0.05 -1.12 -0.01 -1.13 0.03 -1.14 0.07 -1.14 0.11 -1.15 0.15 -1.15 0.19 -1.16 0.23 -1.16 0.27 -1.17 0.32 -1.17 0.36 -1.18 0.4 -1.18 0.45 -1.19 0.5 -1.19 0.54 -1.19 0.65 0.31 -0.54 1.19 -0.49 1.18 -0.45 1.18 -0.4 1.17 -0.36 1.17 -0.31 1.16 -0.27 1.16 -0.23 1.15 -0.19 1.15 -0.15 1.15 -0.11 1.14 -0.07 1.13 -0.03 1.13 0.01 1.12 0.04 1.11 0.08 1.11 0.12 1.1 0.16 1.1 0.19 1.09 0.22 1.08 0.26 1.08 0.29 1.07 0.32 1.06 0.35 1.06 0.38 1.05 0.41 1.04 0.44 1.04 0.47 1.03 0.49 1.02 0.52 1.02 0.55 1.01 0.57 1 0.02 0.15zm-0.02 -0.15l0.05 0.09 -0.03 0.07 -0.02 -0.15zm-16.59 33.37l15.96 -33.53 0.65 0.31 -15.96 33.53 -0.4 0.03 -0.25 -0.34zm0.25 0.34l-0.34 -0.15 0.09 -0.19 0.25 0.34zm0.03 0.01l-0.03 -0.01 0.15 -0.37 0.03 0.01 0.02 0.01 -0.17 0.36zm0.15 -0.37l0.02 0.01 0.03 0.01 -0.05 -0.02zm7.53 0.83l0.55 0.41 -0.03 0.01 -0.24 0.09 -0.24 0.08 -0.24 0.07 -0.24 0.06 -0.24 0.05 -0.25 0.05 -0.25 0.04 -0.25 0.03 -0.25 0.03 -0.25 0.02 -0.26 0.01 -0.25 0 -0.26 -0 -0.26 -0.01 -0.26 -0.02 -0.26 -0.03 -0.26 -0.04 -0.26 -0.04 -0.26 -0.05 -0.26 -0.06 -0.27 -0.06 -0.26 -0.07 -0.27 -0.08 -0.27 -0.08 -0.26 -0.09 -0.27 -0.1 -0.27 -0.1 -0.27 -0.11 -0.27 -0.12 -0.27 -0.12 -0.27 -0.13 -0.27 -0.13 0.2 -0.35 0.25 0.12 0.25 0.12 0.24 0.11 0.25 0.1 0.24 0.1 0.24 0.1 0.24 0.09 0.24 0.08 0.24 0.08 0.24 0.07 0.24 0.06 0.23 0.06 0.24 0.05 0.24 0.04 0.23 0.04 0.23 0.03 0.23 0.03 0.23 0.02 0.23 0.01 0.23 0 0.23 -0 0.23 -0.01 0.23 -0.02 0.23 -0.02 0.23 -0.03 0.23 -0.04 0.23 -0.04 0.23 -0.05 0.23 -0.06 0.23 -0.07 0.23 -0.08 0.23 -0.08 -0.03 0.01zm0.55 0.41l-0.01 0.01 -0.01 0 0.03 -0.01zm7.92 4.23l-0.51 0.13 -0.07 -0.21 0.27 -0.75 0.23 -0.7 0.18 -0.65 0.14 -0.61 0.1 -0.57 0.06 -0.52 0.02 -0.48 -0.01 -0.43 -0.05 -0.39 -0.08 -0.34 -0.11 -0.29 -0.14 -0.24 -0.15 -0.19 -0.16 -0.15 -0.18 -0.12 -0.2 -0.09 -0.23 -0.07 -0.28 -0.05 -0.32 -0.02 -0.35 0.01 -0.39 0.04 -0.42 0.07 -0.44 0.1 -0.46 0.14 -0.49 0.17 -0.5 0.19 -0.52 0.23 -0.54 0.25 -0.56 0.28 -0.57 0.31 -0.58 0.34 -0.6 0.37 -0.55 -0.41 0.6 -0.37 0.59 -0.34 0.58 -0.32 0.57 -0.29 0.55 -0.26 0.54 -0.23 0.52 -0.2 0.5 -0.17 0.48 -0.14 0.47 -0.11 0.45 -0.08 0.43 -0.05 0.42 -0.01 0.41 0.03 0.39 0.07 0.38 0.12 0.37 0.17 0.33 0.22 0.28 0.26 0.23 0.29 0.18 0.32 0.13 0.35 0.09 0.38 0.06 0.42 0.02 0.46 -0.02 0.5 -0.06 0.54 -0.11 0.58 -0.14 0.62 -0.19 0.66 -0.23 0.71 -0.27 0.75 -0.07 -0.21zm-0.51 0.13l-0.11 -0.11 0.04 -0.1 0.07 0.21zm-2.64 6.66l-0.65 -0.3 0.24 -0.08 0.46 0.05 0.44 0.03 0.42 0 0.39 -0.02 0.37 -0.04 0.34 -0.07 0.32 -0.09 0.29 -0.1 0.27 -0.13 0.25 -0.14 0.23 -0.16 0.2 -0.18 0.18 -0.19 0.15 -0.21 0.13 -0.22 0.11 -0.23 0.08 -0.24 0.06 -0.25 0.04 -0.26 0.01 -0.27 -0.01 -0.28 -0.04 -0.29 -0.06 -0.29 -0.08 -0.29 -0.11 -0.3 -0.13 -0.3 -0.15 -0.3 -0.17 -0.3 -0.2 -0.3 -0.22 -0.3 -0.24 -0.3 -0.27 -0.29 0.51 -0.13 0.3 0.32 0.27 0.33 0.24 0.33 0.22 0.33 0.19 0.33 0.16 0.33 0.14 0.33 0.12 0.32 0.09 0.32 0.06 0.32 0.04 0.31 0.01 0.3 -0.01 0.3 -0.04 0.29 -0.06 0.28 -0.09 0.27 -0.12 0.25 -0.14 0.24 -0.17 0.23 -0.19 0.21 -0.22 0.19 -0.25 0.18 -0.27 0.16 -0.3 0.14 -0.33 0.12 -0.36 0.1 -0.38 0.08 -0.41 0.05 -0.43 0.02 -0.46 -0 -0.49 -0.03 -0.51 -0.06 0.24 -0.08zm-0.65 -0.3l0.05 -0.11 0.19 0.03 -0.24 0.08zm-8.56 1.29l0.65 0.09 0 0 0.23 0.64 0.24 0.58 0.24 0.52 0.24 0.47 0.25 0.41 0.25 0.36 0.25 0.3 0.24 0.25 0.23 0.2 0.22 0.14 0.21 0.1 0.2 0.07 0.21 0.04 0.22 0.01 0.24 -0.02 0.25 -0.06 0.26 -0.1 0.27 -0.13 0.27 -0.17 0.27 -0.21 0.27 -0.24 0.27 -0.27 0.27 -0.31 0.27 -0.33 0.27 -0.37 0.27 -0.39 0.27 -0.42 0.26 -0.44 0.25 -0.47 0.25 -0.49 0.24 -0.51 0.24 -0.53 0.65 0.3 -0.24 0.54 -0.24 0.52 -0.25 0.5 -0.26 0.47 -0.26 0.45 -0.27 0.42 -0.27 0.4 -0.27 0.37 -0.28 0.34 -0.28 0.31 -0.28 0.29 -0.29 0.25 -0.29 0.22 -0.3 0.19 -0.3 0.15 -0.31 0.12 -0.32 0.08 -0.33 0.03 -0.34 -0.01 -0.36 -0.07 -0.36 -0.12 -0.35 -0.18 -0.33 -0.22 -0.32 -0.27 -0.3 -0.31 -0.28 -0.35 -0.27 -0.4 -0.27 -0.44 -0.26 -0.49 -0.25 -0.55 -0.24 -0.59 -0.24 -0.65 0 0zm0.65 0.09l0 0 0 0 0 0zm-5.31 -5.56l0.16 -0.37 0 0 0.23 0.11 0.23 0.11 0.22 0.11 0.22 0.11 0.21 0.12 0.2 0.12 0.2 0.12 0.2 0.13 0.19 0.13 0.19 0.14 0.18 0.14 0.18 0.14 0.17 0.15 0.17 0.16 0.16 0.16 0.16 0.17 0.15 0.17 0.15 0.18 0.15 0.19 0.14 0.2 0.13 0.2 0.13 0.21 0.13 0.22 0.13 0.23 0.12 0.24 0.12 0.25 0.12 0.26 0.12 0.27 0.12 0.28 0.12 0.29 0.12 0.31 0.11 0.32 -0.65 -0.09 -0.11 -0.31 -0.11 -0.3 -0.12 -0.28 -0.11 -0.27 -0.11 -0.26 -0.12 -0.25 -0.12 -0.24 -0.12 -0.23 -0.12 -0.22 -0.12 -0.2 -0.12 -0.19 -0.13 -0.19 -0.12 -0.18 -0.13 -0.17 -0.13 -0.16 -0.13 -0.16 -0.13 -0.15 -0.14 -0.14 -0.14 -0.13 -0.14 -0.13 -0.15 -0.12 -0.15 -0.12 -0.16 -0.11 -0.17 -0.12 -0.17 -0.11 -0.17 -0.11 -0.19 -0.11 -0.19 -0.11 -0.19 -0.1 -0.2 -0.1 -0.21 -0.11 -0.22 -0.1 0 0zm-1.81 -1.07l-0.65 -0.31 0.41 -0.03 0.15 0.07 0.15 0.07 0.14 0.07 0.15 0.07 0.14 0.07 0.14 0.06 0.14 0.07 0.14 0.06 0.14 0.06 0.14 0.07 0.13 0.06 0.13 0.06 0.13 0.06 0.13 0.06 0.13 0.06 0.13 0.06 -0.16 0.37 -0.13 -0.06 -0.13 -0.06 -0.13 -0.06 -0.14 -0.06 -0.13 -0.06 -0.14 -0.06 -0.14 -0.07 -0.14 -0.06 -0.14 -0.07 -0.14 -0.06 -0.14 -0.07 -0.14 -0.07 -0.14 -0.07 -0.15 -0.07 -0.14 -0.07 -0.15 -0.07 0.41 -0.03zm-0.65 -0.31l0.08 -0.18 0.32 0.15 -0.41 0.03zm-4.43 9.31l4.43 -9.31 0.65 0.31 -4.43 9.31 -0.65 -0.31zm-6.17 12.96l6.17 -12.96 0.65 0.31 -6.17 12.96 -0.44 0.01 -0.21 -0.32zm0.21 0.32l-0.28 -0.15 0.08 -0.16 0.21 0.32zm0.03 0.01l-0.03 -0.01 0.23 -0.33 0.03 0.01 -0.22 0.34 -0.02 -0.01zm0.02 0.01l-0.02 -0.01 0.05 0.03 -0.04 -0.02zm7.7 0.47l0.55 0.41 -0.03 0.01 -0.24 0.09 -0.24 0.08 -0.24 0.07 -0.24 0.07 -0.25 0.06 -0.24 0.04 -0.25 0.04 -0.25 0.03 -0.25 0.03 -0.25 0.02 -0.26 0.01 -0.25 0 -0.26 -0.01 -0.26 -0.01 -0.26 -0.02 -0.26 -0.03 -0.26 -0.04 -0.26 -0.04 -0.26 -0.05 -0.27 -0.06 -0.26 -0.06 -0.26 -0.07 -0.27 -0.08 -0.27 -0.08 -0.26 -0.09 -0.27 -0.1 -0.27 -0.1 -0.27 -0.11 -0.27 -0.12 -0.27 -0.12 -0.27 -0.13 -0.27 -0.13 0.2 -0.35 0.25 0.12 0.25 0.12 0.24 0.11 0.25 0.1 0.24 0.1 0.24 0.1 0.24 0.09 0.24 0.08 0.24 0.08 0.24 0.07 0.24 0.06 0.23 0.06 0.24 0.05 0.24 0.04 0.23 0.04 0.23 0.03 0.23 0.03 0.23 0.02 0.23 0.01 0.23 0.01 0.23 -0 0.23 -0.01 0.23 -0.02 0.23 -0.02 0.23 -0.03 0.23 -0.04 0.23 -0.04 0.23 -0.05 0.23 -0.06 0.23 -0.07 0.23 -0.08 0.23 -0.08 -0.03 0.01zm0.55 0.41l-0.01 0.01 -0.01 0 0.03 -0.01zm7.92 4.23l-0.51 0.13 -0.07 -0.21 0.27 -0.75 0.23 -0.7 0.18 -0.65 0.14 -0.61 0.1 -0.57 0.06 -0.52 0.02 -0.48 -0.01 -0.43 -0.05 -0.39 -0.08 -0.34 -0.11 -0.29 -0.14 -0.24 -0.15 -0.19 -0.16 -0.15 -0.18 -0.12 -0.2 -0.09 -0.23 -0.07 -0.28 -0.05 -0.32 -0.02 -0.35 0.01 -0.39 0.04 -0.42 0.07 -0.44 0.1 -0.46 0.14 -0.49 0.17 -0.5 0.19 -0.52 0.23 -0.54 0.25 -0.56 0.28 -0.57 0.31 -0.58 0.34 -0.6 0.37 -0.55 -0.41 0.6 -0.37 0.59 -0.34 0.58 -0.32 0.57 -0.29 0.55 -0.26 0.54 -0.23 0.52 -0.2 0.5 -0.17 0.48 -0.14 0.47 -0.11 0.45 -0.08 0.43 -0.05 0.42 -0.01 0.41 0.03 0.39 0.07 0.38 0.12 0.37 0.17 0.33 0.22 0.28 0.26 0.23 0.29 0.18 0.32 0.13 0.35 0.09 0.38 0.06 0.42 0.02 0.46 -0.02 0.5 -0.06 0.54 -0.11 0.58 -0.14 0.62 -0.19 0.66 -0.23 0.71 -0.27 0.75 -0.07 -0.21zm-0.51 0.13l-0.11 -0.11 0.04 -0.1 0.07 0.21zm-2.64 6.66l-0.65 -0.3 0.24 -0.08 0.46 0.05 0.44 0.03 0.42 0 0.39 -0.02 0.37 -0.04 0.34 -0.07 0.32 -0.09 0.29 -0.11 0.27 -0.12 0.25 -0.15 0.23 -0.16 0.2 -0.18 0.18 -0.19 0.15 -0.2 0.13 -0.22 0.11 -0.23 0.08 -0.24 0.06 -0.25 0.04 -0.26 0.01 -0.27 -0.01 -0.28 -0.04 -0.29 -0.06 -0.29 -0.08 -0.29 -0.11 -0.3 -0.13 -0.3 -0.15 -0.3 -0.17 -0.3 -0.2 -0.3 -0.22 -0.3 -0.24 -0.3 -0.27 -0.29 0.51 -0.13 0.3 0.32 0.27 0.33 0.24 0.33 0.22 0.33 0.19 0.33 0.16 0.33 0.14 0.33 0.12 0.32 0.09 0.32 0.06 0.32 0.04 0.31 0.01 0.3 -0.01 0.3 -0.04 0.29 -0.06 0.28 -0.09 0.27 -0.12 0.25 -0.14 0.24 -0.17 0.23 -0.19 0.21 -0.22 0.19 -0.25 0.18 -0.27 0.16 -0.3 0.14 -0.33 0.12 -0.36 0.1 -0.38 0.08 -0.41 0.05 -0.43 0.02 -0.46 -0 -0.49 -0.03 -0.51 -0.06 0.24 -0.08zm-0.65 -0.3l0.05 -0.11 0.19 0.03 -0.24 0.08zm-8.56 1.29l0.65 0.09 0 0 0.23 0.64 0.24 0.58 0.24 0.52 0.24 0.47 0.25 0.41 0.25 0.36 0.25 0.3 0.24 0.25 0.23 0.19 0.22 0.15 0.2 0.1 0.2 0.07 0.21 0.04 0.22 0.01 0.24 -0.03 0.26 -0.06 0.26 -0.1 0.27 -0.13 0.27 -0.17 0.27 -0.21 0.27 -0.24 0.27 -0.27 0.27 -0.31 0.27 -0.34 0.27 -0.36 0.27 -0.39 0.27 -0.42 0.26 -0.44 0.25 -0.47 0.25 -0.49 0.24 -0.51 0.24 -0.53 0.65 0.3 -0.24 0.54 -0.25 0.52 -0.25 0.5 -0.26 0.47 -0.26 0.45 -0.27 0.42 -0.27 0.4 -0.27 0.37 -0.28 0.35 -0.28 0.31 -0.28 0.29 -0.29 0.25 -0.29 0.22 -0.3 0.19 -0.3 0.15 -0.31 0.11 -0.32 0.08 -0.33 0.04 -0.34 -0.01 -0.35 -0.07 -0.36 -0.12 -0.36 -0.18 -0.33 -0.23 -0.32 -0.27 -0.3 -0.31 -0.28 -0.35 -0.27 -0.4 -0.27 -0.44 -0.26 -0.49 -0.25 -0.55 -0.24 -0.59 -0.24 -0.65 0 0zm0.65 0.09l0 0 0 0 0 0zm-5.31 -5.56l0.16 -0.37 0 0 0.23 0.11 0.23 0.11 0.23 0.11 0.22 0.12 0.21 0.12 0.21 0.12 0.2 0.12 0.19 0.13 0.19 0.13 0.19 0.14 0.18 0.14 0.18 0.15 0.17 0.15 0.17 0.16 0.16 0.16 0.16 0.17 0.15 0.17 0.15 0.18 0.15 0.19 0.14 0.19 0.13 0.2 0.13 0.21 0.13 0.22 0.13 0.23 0.12 0.24 0.12 0.25 0.12 0.26 0.12 0.27 0.12 0.28 0.12 0.29 0.12 0.31 0.11 0.32 -0.65 -0.09 -0.11 -0.31 -0.11 -0.3 -0.12 -0.28 -0.11 -0.27 -0.11 -0.26 -0.12 -0.25 -0.12 -0.24 -0.12 -0.23 -0.12 -0.22 -0.12 -0.2 -0.13 -0.2 -0.12 -0.19 -0.12 -0.18 -0.13 -0.17 -0.13 -0.16 -0.13 -0.15 -0.13 -0.15 -0.14 -0.14 -0.14 -0.13 -0.15 -0.13 -0.15 -0.12 -0.15 -0.12 -0.16 -0.12 -0.16 -0.11 -0.17 -0.11 -0.18 -0.11 -0.18 -0.11 -0.19 -0.1 -0.2 -0.11 -0.2 -0.1 -0.21 -0.1 -0.22 -0.11 0 0zm-1.81 -1.07l-0.65 -0.31 0.41 -0.03 0.15 0.07 0.15 0.07 0.14 0.07 0.15 0.07 0.14 0.07 0.14 0.06 0.14 0.07 0.14 0.06 0.14 0.06 0.14 0.07 0.13 0.06 0.13 0.06 0.13 0.06 0.13 0.06 0.13 0.06 0.13 0.06 -0.16 0.37 -0.13 -0.06 -0.13 -0.06 -0.13 -0.06 -0.14 -0.06 -0.13 -0.06 -0.14 -0.06 -0.14 -0.07 -0.14 -0.06 -0.14 -0.07 -0.14 -0.06 -0.14 -0.07 -0.14 -0.07 -0.14 -0.07 -0.15 -0.07 -0.14 -0.07 -0.15 -0.07 0.41 -0.03zm-0.65 -0.31l0.08 -0.18 0.32 0.15 -0.41 0.03zm-14.22 29.87l14.22 -29.87 0.65 0.31 -14.22 29.87 -0.15 0.08 -0.5 -0.39zm0.65 0.31l-0.04 0.07 -0.11 0.01 0.15 -0.08zm-18.28 13.74l-0.17 0.36 -0.23 -0.35 0.62 -0.93 0.62 -0.9 0.63 -0.86 0.63 -0.82 0.64 -0.79 0.64 -0.75 0.64 -0.72 0.64 -0.68 0.64 -0.65 0.64 -0.62 0.64 -0.58 0.63 -0.55 0.63 -0.52 0.62 -0.49 0.62 -0.46 0.61 -0.43 0.61 -0.4 0.59 -0.37 0.59 -0.35 0.58 -0.32 0.56 -0.29 0.55 -0.27 0.54 -0.24 0.52 -0.22 0.51 -0.19 0.49 -0.17 0.47 -0.15 0.46 -0.12 0.44 -0.11 0.42 -0.08 0.4 -0.06 0.38 -0.04 0.35 0.47 -0.35 0.04 -0.37 0.06 -0.4 0.08 -0.42 0.1 -0.44 0.12 -0.46 0.14 -0.48 0.17 -0.49 0.19 -0.51 0.21 -0.53 0.24 -0.54 0.26 -0.56 0.29 -0.57 0.31 -0.58 0.34 -0.59 0.37 -0.6 0.4 -0.61 0.42 -0.61 0.46 -0.62 0.48 -0.62 0.52 -0.63 0.55 -0.63 0.58 -0.63 0.61 -0.64 0.64 -0.64 0.68 -0.64 0.71 -0.64 0.75 -0.63 0.78 -0.63 0.82 -0.63 0.85 -0.62 0.89 -0.61 0.93 -0.23 -0.35zm-0.17 0.36l-0.35 -0.16 0.12 -0.18 0.23 0.35zm1.06 0.5l-1.06 -0.5 0.17 -0.36 1.06 0.5 0.23 0.34 -0.41 0.02zm0.17 -0.36l0.34 0.16 -0.1 0.18 -0.23 -0.34zm-103.16 234.66l-0.65 -0.3 0 0 1.21 -2.76 3.31 -7.51 5.11 -11.59 6.61 -14.99 7.81 -17.71 8.71 -19.74 9.31 -21.1 9.61 -21.78 9.61 -21.78 9.31 -21.1 8.71 -19.74 7.82 -17.7 6.62 -14.98 5.12 -11.58 1.91 -4.31 1.42 -3.2 0.9 -2.01 0.34 -0.75 0.64 0.32 -0.33 0.73 -0.9 2.01 -1.42 3.2 -1.91 4.31 -5.12 11.58 -6.62 14.98 -7.82 17.7 -8.71 19.74 -9.31 21.1 -9.61 21.78 -9.61 21.78 -9.31 21.1 -8.71 19.74 -7.81 17.71 -6.61 14.99 -5.11 11.59 -3.31 7.51 -1.21 2.75 0 0zm0 0l0 0 0 0 0 0zm-1.09 0.76l0.44 -1.06 0.65 0.3 -0.44 1.06 -0.36 0.06 -0.3 -0.35zm0.3 0.35l-0.38 -0.14 0.09 -0.21 0.3 0.35zm1.39 0.09l-0.02 0.42 -0.03 -0.01 -0.03 -0.01 -0.08 -0.03 -0.13 -0.05 -0.17 -0.06 -0.2 -0.08 -0.23 -0.08 -0.25 -0.09 -0.26 -0.1 0.06 -0.41 0.27 0.1 0.25 0.09 0.23 0.09 0.21 0.08 0.16 0.06 0.12 0.05 0.09 0.03 0.03 0.01 -0.03 -0.01zm-0.02 0.42l-0.01 -0 -0.02 -0.01 0.03 0.01zm7.22 81.64l0.62 0.03 -0.58 -0.23 2.73 -1.67 2.62 -1.85 2.49 -2.01 2.37 -2.17 2.22 -2.31 2.08 -2.44 1.92 -2.56 1.76 -2.66 1.59 -2.76 1.42 -2.84 1.23 -2.91 1.04 -2.96 0.84 -3.01 0.63 -3.04 0.42 -3.06 0.19 -3.07 -0.03 -3.07 -0.27 -3.04 -0.51 -3.02 -0.76 -2.97 -1.02 -2.92 -1.28 -2.85 -1.56 -2.77 -1.83 -2.68 -2.12 -2.58 -2.41 -2.47 -2.71 -2.34 -3.02 -2.2 -3.33 -2.06 -3.65 -1.89 -3.99 -1.73 -4.34 -1.54 0.02 -0.42 4.41 1.57 4.07 1.76 3.74 1.94 3.41 2.1 3.09 2.26 2.77 2.39 2.46 2.52 2.16 2.63 1.86 2.73 1.58 2.82 1.3 2.89 1.03 2.95 0.77 3 0.52 3.04 0.27 3.07 0.04 3.08 -0.2 3.09 -0.42 3.08 -0.64 3.06 -0.84 3.02 -1.04 2.98 -1.24 2.92 -1.42 2.85 -1.6 2.77 -1.77 2.68 -1.93 2.57 -2.09 2.45 -2.23 2.32 -2.38 2.18 -2.51 2.03 -2.63 1.86 -2.75 1.68 -0.58 -0.23zm0.58 0.23l-0.36 0.2 -0.22 -0.43 0.58 0.23zm-4.7 -9.42l4.74 9.23 -0.62 -0.03 -4.74 -9.23 0.03 -0.18 0.6 0.22zm-0.62 -0.03l-0.06 -0.12 0.09 -0.07 -0.03 0.18zm-11.22 -46.14l-0.67 -0.23 0.15 -0.12 2.24 -0.17 2.19 0 2.13 0.18 2.07 0.34 2.01 0.5 1.93 0.65 1.84 0.8 1.75 0.93 1.65 1.06 1.54 1.18 1.42 1.29 1.3 1.4 1.16 1.49 1.03 1.58 0.88 1.66 0.74 1.73 0.58 1.8 0.42 1.86 0.25 1.91 0.08 1.96 -0.1 2 -0.28 2.03 -0.48 2.06 -0.68 2.07 -0.88 2.08 -1.09 2.09 -1.31 2.09 -1.54 2.08 -1.77 2.06 -2 2.03 -2.25 2.01 -2.5 1.97 -0.57 -0.4 2.49 -1.96 2.24 -1.99 1.99 -2.03 1.75 -2.05 1.53 -2.06 1.3 -2.07 1.08 -2.07 0.87 -2.07 0.67 -2.06 0.47 -2.03 0.28 -2.01 0.1 -1.98 -0.08 -1.93 -0.25 -1.88 -0.42 -1.83 -0.57 -1.76 -0.72 -1.69 -0.86 -1.61 -1 -1.53 -1.12 -1.44 -1.24 -1.34 -1.36 -1.23 -1.46 -1.12 -1.56 -1.01 -1.66 -0.88 -1.75 -0.75 -1.84 -0.62 -1.92 -0.48 -1.99 -0.33 -2.06 -0.17 -2.13 -0 -2.19 0.17 0.15 -0.12zm-0.67 -0.23l0.01 -0.11 0.14 -0.02 -0.15 0.12zm12.7 53.79l0.19 -0.35 -0.41 0.15 -0.62 -1.29 -0.63 -1.32 -0.63 -1.35 -0.63 -1.38 -0.63 -1.41 -0.62 -1.44 -0.62 -1.47 -0.61 -1.5 -0.6 -1.52 -0.59 -1.55 -0.58 -1.57 -0.56 -1.6 -0.54 -1.62 -0.53 -1.64 -0.51 -1.66 -0.48 -1.69 -0.46 -1.71 -0.43 -1.73 -0.4 -1.75 -0.37 -1.77 -0.34 -1.79 -0.31 -1.81 -0.27 -1.83 -0.23 -1.84 -0.19 -1.87 -0.15 -1.88 -0.11 -1.9 -0.07 -1.91 -0.02 -1.93 0.03 -1.94 0.08 -1.95 0.13 -1.96 0.67 0.23 -0.13 1.96 -0.08 1.94 -0.03 1.93 0.02 1.92 0.06 1.9 0.11 1.89 0.15 1.87 0.19 1.86 0.23 1.84 0.27 1.82 0.31 1.8 0.34 1.78 0.37 1.76 0.4 1.75 0.43 1.73 0.46 1.7 0.48 1.68 0.5 1.66 0.53 1.64 0.54 1.61 0.56 1.59 0.58 1.57 0.59 1.54 0.6 1.51 0.61 1.49 0.62 1.46 0.62 1.44 0.62 1.41 0.63 1.38 0.63 1.35 0.62 1.32 0.62 1.29 -0.41 0.15zm0.41 -0.15l0.23 0.47 -0.64 -0.32 0.41 -0.15zm-0.22 -0.2l0 0 -0.19 0.35 -0 -0 -0.21 -0.18 0.4 -0.17zm-0.4 0.17l-0.29 -0.52 0.69 0.35 -0.4 0.17zm3.79 92.04l-0.65 -0.31 0 0 1.31 -2.86 1.21 -2.88 1.11 -2.9 1.02 -2.91 0.92 -2.93 0.83 -2.94 0.73 -2.95 0.64 -2.95 0.54 -2.96 0.46 -2.97 0.36 -2.97 0.27 -2.97 0.18 -2.97 0.09 -2.96 0 -2.96 -0.08 -2.95 -0.17 -2.94 -0.26 -2.93 -0.34 -2.92 -0.43 -2.9 -0.51 -2.89 -0.6 -2.87 -0.68 -2.85 -0.77 -2.83 -0.84 -2.8 -0.92 -2.78 -1 -2.75 -1.09 -2.72 -1.16 -2.68 -1.24 -2.65 -1.32 -2.62 -1.4 -2.57 0.61 0.01 1.4 2.59 1.33 2.63 1.25 2.66 1.17 2.7 1.09 2.73 1.01 2.76 0.93 2.79 0.85 2.81 0.77 2.84 0.68 2.86 0.6 2.88 0.52 2.9 0.43 2.91 0.34 2.93 0.26 2.94 0.17 2.95 0.09 2.96 -0 2.97 -0.09 2.97 -0.18 2.98 -0.27 2.98 -0.36 2.98 -0.46 2.98 -0.55 2.97 -0.64 2.96 -0.73 2.95 -0.83 2.95 -0.92 2.93 -1.02 2.92 -1.11 2.91 -1.21 2.88 -1.31 2.87 0 0zm-133.75 47.22l0.17 -0.36 0 0 4.68 2.08 4.73 1.83 4.76 1.57 4.8 1.32 4.83 1.07 4.84 0.82 4.85 0.58 4.85 0.34 4.84 0.1 4.83 -0.14 4.8 -0.37 4.77 -0.6 4.73 -0.83 4.68 -1.05 4.62 -1.27 4.55 -1.49 4.48 -1.7 4.39 -1.92 4.3 -2.13 4.2 -2.34 4.09 -2.54 3.97 -2.74 3.84 -2.94 3.71 -3.13 3.56 -3.32 3.41 -3.51 3.25 -3.7 3.08 -3.88 2.91 -4.06 2.72 -4.24 2.53 -4.41 2.33 -4.58 0.65 0.31 -2.33 4.59 -2.53 4.42 -2.72 4.25 -2.91 4.07 -3.09 3.89 -3.26 3.71 -3.42 3.52 -3.57 3.33 -3.72 3.14 -3.85 2.95 -3.98 2.75 -4.1 2.55 -4.21 2.34 -4.31 2.14 -4.41 1.92 -4.49 1.71 -4.57 1.5 -4.64 1.28 -4.7 1.06 -4.76 0.83 -4.8 0.6 -4.84 0.37 -4.86 0.14 -4.88 -0.1 -4.9 -0.34 -4.9 -0.58 -4.89 -0.83 -4.88 -1.08 -4.86 -1.33 -4.83 -1.59 -4.79 -1.85 -4.74 -2.11 0 0zm0.17 -0.36l0 0 0.68 0.32 -0.68 -0.32zm-0.7 0.1l0.15 -0.37 0.01 0 0.07 0.04 0.08 0.04 0.07 0.04 0.06 0.03 0.08 0.04 0.07 0.04 0.06 0.03 0.06 0.03 -0.17 0.36 -0.07 -0.04 -0.08 -0.04 -0.07 -0.04 -0.06 -0.03 -0.08 -0.04 -0.07 -0.04 -0.06 -0.03 -0.07 -0.03 0.01 0zm0.15 -0.37l0.01 0 0.07 0.03 -0.08 -0.04zm-5.37 -2.34l0.24 -0.32 0.01 0 0.31 0.18 0.32 0.18 0.32 0.18 0.31 0.18 0.32 0.18 0.32 0.17 0.32 0.17 0.32 0.17 0.32 0.16 0.32 0.16 0.32 0.16 0.32 0.16 0.32 0.15 0.32 0.15 0.32 0.15 0.32 0.15 -0.15 0.37 -0.33 -0.15 -0.33 -0.15 -0.33 -0.16 -0.33 -0.16 -0.33 -0.16 -0.33 -0.16 -0.33 -0.16 -0.33 -0.17 -0.33 -0.17 -0.32 -0.17 -0.33 -0.18 -0.32 -0.18 -0.32 -0.18 -0.32 -0.18 -0.32 -0.18 -0.32 -0.19 0.01 0zm0.24 -0.32l0.01 0 0.07 0.04 -0.08 -0.04zm-42.18 -130.29l0.65 0.31 0 0 -2.01 4.51 -1.77 4.56 -1.54 4.59 -1.3 4.62 -1.07 4.64 -0.84 4.66 -0.61 4.67 -0.38 4.67 -0.16 4.66 0.05 4.65 0.27 4.63 0.49 4.6 0.7 4.56 0.9 4.52 1.11 4.47 1.31 4.41 1.51 4.34 1.71 4.27 1.91 4.19 2.1 4.1 2.29 4.01 2.47 3.9 2.66 3.79 2.84 3.67 3.02 3.55 3.19 3.41 3.37 3.28 3.53 3.13 3.7 2.97 3.87 2.81 4.03 2.64 4.19 2.46 -0.24 0.32 -4.24 -2.49 -4.07 -2.67 -3.91 -2.84 -3.74 -3 -3.57 -3.16 -3.4 -3.3 -3.22 -3.45 -3.04 -3.58 -2.86 -3.7 -2.68 -3.82 -2.49 -3.93 -2.3 -4.03 -2.11 -4.12 -1.92 -4.21 -1.72 -4.29 -1.52 -4.36 -1.32 -4.43 -1.11 -4.49 -0.91 -4.54 -0.7 -4.58 -0.49 -4.62 -0.27 -4.64 -0.06 -4.67 0.17 -4.68 0.38 -4.68 0.61 -4.68 0.84 -4.67 1.07 -4.66 1.3 -4.63 1.54 -4.6 1.78 -4.56 2.02 -4.52 0 0zm75.09 -55.41l0.19 -0.35 0.1 0.41 -2.94 0.5 -2.92 0.59 -2.9 0.68 -2.88 0.76 -2.85 0.85 -2.83 0.93 -2.8 1.01 -2.76 1.1 -2.73 1.18 -2.7 1.26 -2.66 1.34 -2.62 1.42 -2.58 1.5 -2.54 1.58 -2.49 1.65 -2.45 1.73 -2.4 1.81 -2.35 1.88 -2.29 1.96 -2.24 2.03 -2.18 2.1 -2.12 2.18 -2.06 2.25 -2 2.32 -1.93 2.39 -1.86 2.46 -1.8 2.53 -1.73 2.6 -1.65 2.67 -1.58 2.73 -1.5 2.8 -1.42 2.87 -0.65 -0.31 1.42 -2.87 1.5 -2.8 1.58 -2.74 1.65 -2.67 1.73 -2.6 1.8 -2.54 1.87 -2.47 1.94 -2.4 2 -2.33 2.07 -2.26 2.13 -2.18 2.19 -2.11 2.25 -2.04 2.3 -1.96 2.35 -1.89 2.41 -1.81 2.45 -1.74 2.5 -1.66 2.55 -1.58 2.59 -1.5 2.63 -1.42 2.67 -1.34 2.71 -1.27 2.75 -1.18 2.77 -1.1 2.81 -1.02 2.84 -0.93 2.86 -0.85 2.89 -0.77 2.91 -0.68 2.94 -0.59 2.95 -0.51 0.1 0.41zm0.19 -0.35l0.65 0.32 -0.55 0.09 -0.1 -0.41zm-0.01 -0l0.01 0 -0.19 0.35 -0.01 -0 -0.14 -0.4 0.34 0.05zm-0.19 0.35l-0.53 -0.27 0.39 -0.13 0.14 0.4zm41.51 -25.38l0.62 0.35 0 0 -1.29 1.55 -1.29 1.47 -1.3 1.4 -1.3 1.33 -1.3 1.26 -1.3 1.19 -1.31 1.13 -1.31 1.07 -1.31 1.01 -1.31 0.96 -1.31 0.9 -1.31 0.85 -1.32 0.81 -1.32 0.77 -1.32 0.73 -1.32 0.69 -1.32 0.65 -1.32 0.62 -1.31 0.59 -1.32 0.56 -1.31 0.54 -1.31 0.51 -1.31 0.49 -1.31 0.48 -1.31 0.46 -1.3 0.45 -1.3 0.44 -1.3 0.44 -1.3 0.44 -1.29 0.43 -1.29 0.44 -1.28 0.44 -0.48 -0.45 1.29 -0.44 1.29 -0.44 1.29 -0.43 1.3 -0.44 1.3 -0.44 1.3 -0.44 1.3 -0.45 1.3 -0.46 1.31 -0.47 1.3 -0.49 1.31 -0.51 1.31 -0.53 1.31 -0.56 1.31 -0.58 1.31 -0.61 1.31 -0.65 1.31 -0.68 1.31 -0.72 1.31 -0.76 1.31 -0.81 1.31 -0.85 1.31 -0.9 1.3 -0.95 1.3 -1.01 1.3 -1.06 1.3 -1.12 1.3 -1.19 1.3 -1.25 1.29 -1.32 1.29 -1.39 1.29 -1.46 1.28 -1.54 0 0zm0.62 0.35l0 0 0 0 0 0zm0.68 -0.85l-0.68 0.85 -0.62 -0.35 0.68 -0.85 0.61 0.18 0.01 0.17zm-0.01 -0.17l0.06 0.1 -0.06 0.07 -0.01 -0.17zm-43.93 19.49l-0.42 -0.46 -0.12 0.13 -0.05 -3.22 0.15 -3.04 0.32 -2.87 0.5 -2.69 0.66 -2.52 0.81 -2.35 0.95 -2.18 1.09 -2.01 1.21 -1.84 1.32 -1.67 1.42 -1.5 1.52 -1.33 1.6 -1.16 1.67 -1 1.74 -0.83 1.79 -0.66 1.83 -0.5 1.87 -0.33 1.9 -0.16 1.91 -0 1.92 0.16 1.92 0.33 1.9 0.5 1.88 0.66 1.84 0.82 1.78 0.99 1.72 1.15 1.65 1.3 1.56 1.46 1.47 1.62 1.36 1.77 1.25 1.92 -0.61 -0 -1.22 -1.88 -1.33 -1.72 -1.42 -1.57 -1.5 -1.41 -1.58 -1.25 -1.64 -1.09 -1.69 -0.94 -1.74 -0.78 -1.78 -0.63 -1.81 -0.47 -1.83 -0.31 -1.84 -0.16 -1.85 0 -1.84 0.16 -1.82 0.32 -1.8 0.49 -1.76 0.65 -1.71 0.81 -1.65 0.98 -1.58 1.15 -1.5 1.31 -1.41 1.48 -1.31 1.65 -1.2 1.82 -1.08 1.99 -0.95 2.16 -0.81 2.33 -0.66 2.5 -0.49 2.68 -0.32 2.85 -0.14 3.03 0.05 3.2 -0.12 0.13zm0.12 -0.13l0 0.11 -0.13 0.03 0.12 -0.13zm-10.69 1.81l10.15 -2.14 0.42 0.46 -10.15 2.14 -0.54 -0.31 0.12 -0.15zm0.42 0.46l-0.47 0.1 -0.07 -0.41 0.54 0.31zm67.76 -46.16l0.65 0.31 -0.48 -0.01 -3.93 -2.39 -3.85 -2.01 -3.78 -1.64 -3.69 -1.29 -3.61 -0.95 -3.52 -0.63 -3.43 -0.31 -3.34 -0.02 -3.24 0.27 -3.14 0.54 -3.02 0.81 -2.91 1.05 -2.79 1.29 -2.66 1.5 -2.53 1.71 -2.4 1.91 -2.26 2.09 -2.11 2.26 -1.96 2.41 -1.81 2.55 -1.65 2.68 -1.48 2.79 -1.31 2.89 -1.14 2.98 -0.96 3.04 -0.77 3.11 -0.58 3.15 -0.39 3.18 -0.19 3.2 0.01 3.21 0.22 3.2 0.43 3.18 -0.67 -0.15 -0.43 -3.19 -0.22 -3.22 -0.01 -3.22 0.19 -3.22 0.39 -3.2 0.59 -3.17 0.77 -3.12 0.96 -3.06 1.14 -2.99 1.32 -2.9 1.49 -2.8 1.65 -2.68 1.81 -2.56 1.97 -2.42 2.12 -2.26 2.27 -2.1 2.42 -1.92 2.55 -1.73 2.69 -1.52 2.82 -1.3 2.94 -1.06 3.07 -0.81 3.18 -0.55 3.3 -0.27 3.4 0.02 3.51 0.32 3.6 0.64 3.7 0.97 3.78 1.32 3.86 1.68 3.93 2.05 4 2.43 -0.48 -0.01zm0.65 0.31l-0.11 0.23 -0.38 -0.25 0.48 0.01zm141.65 -259.83l-0.65 -0.31 0.24 0.34 -0.68 -0.32 -0.69 -0.32 -0.69 -0.32 -0.69 -0.32 -0.69 -0.33 -0.69 -0.33 -0.7 -0.33 -0.7 -0.33 -0.7 -0.33 -0.7 -0.33 -0.7 -0.33 -0.7 -0.33 -0.7 -0.33 -0.69 -0.32 -0.69 -0.32 -0.69 -0.32 0.16 -0.37 0.69 0.32 0.69 0.32 0.69 0.32 0.7 0.33 0.7 0.33 0.7 0.33 0.7 0.33 0.7 0.33 0.7 0.33 0.7 0.33 0.69 0.33 0.69 0.33 0.69 0.32 0.69 0.32 0.68 0.32 0.69 0.32 0.24 0.34zm-0.24 -0.34l0.33 0.15 -0.09 0.18 -0.24 -0.34zm-8.62 17.28l8.21 -17.25 0.65 0.31 -8.21 17.25 -0.41 0.03 -0.24 -0.34zm0.65 0.31l-0.09 0.18 -0.32 -0.15 0.41 -0.03zm-11.31 -5.61l11.07 5.27 -0.17 0.36 -11.07 -5.27 -0.24 -0.34 0.41 -0.03zm-0.17 0.36l-0.32 -0.15 0.09 -0.18 0.24 0.34zm8.59 -17.21l-8.18 17.18 -0.65 -0.31 8.18 -17.18 0.41 -0.03 0.24 0.34zm-0.65 -0.31l0.08 -0.18 0.32 0.15 -0.41 0.03zm41.49 -56.96l-0.65 -0.31 -0 0.02 0.13 -0.53 0.08 -0.52 0.02 -0.51 -0.03 -0.5 -0.08 -0.49 -0.13 -0.47 -0.17 -0.46 -0.21 -0.44 -0.25 -0.42 -0.28 -0.4 -0.31 -0.37 -0.34 -0.35 -0.36 -0.32 -0.39 -0.3 -0.4 -0.27 -0.42 -0.23 -0.44 -0.21 -0.45 -0.17 -0.46 -0.14 -0.47 -0.11 -0.48 -0.07 -0.48 -0.03 -0.48 0.01 -0.48 0.05 -0.48 0.1 -0.48 0.15 -0.47 0.2 -0.46 0.25 -0.44 0.31 -0.42 0.36 -0.4 0.42 -0.38 0.48 -0.63 -0.34 0.39 -0.5 0.42 -0.44 0.44 -0.38 0.47 -0.32 0.49 -0.27 0.5 -0.22 0.52 -0.16 0.53 -0.11 0.54 -0.06 0.55 -0.01 0.55 0.04 0.55 0.08 0.55 0.12 0.54 0.17 0.53 0.21 0.52 0.24 0.5 0.28 0.47 0.31 0.45 0.34 0.42 0.37 0.39 0.4 0.35 0.42 0.32 0.44 0.28 0.46 0.23 0.48 0.19 0.49 0.14 0.51 0.09 0.52 0.04 0.53 -0.02 0.54 -0.08 0.55 -0.14 0.55 -0 0.02zm0 -0.02l-0 0.02 0 -0 0 -0.02zm-7.19 13.45l6.54 -13.74 0.65 0.31 -6.54 13.74 -0.41 0.03 -0.24 -0.34zm0.65 0.31l-0.09 0.18 -0.32 -0.15 0.41 -0.03zm-6.81 -3.48l6.57 3.14 -0.17 0.36 -6.57 -3.14 -0.23 -0.34 0.41 -0.02zm-0.41 0.02l0.09 -0.18 0.32 0.15 -0.41 0.02zm-3.27 6.25l3.27 -6.25 0.64 0.31 -3.27 6.25 -0.4 0.03 -0.24 -0.34zm0.24 0.34l-0.34 -0.16 0.1 -0.19 0.24 0.34zm7.24 3.18l-0.65 -0.31 0.24 0.34 -0.46 -0.22 -0.46 -0.22 -0.45 -0.21 -0.45 -0.21 -0.44 -0.21 -0.44 -0.21 -0.44 -0.2 -0.43 -0.2 -0.43 -0.2 -0.42 -0.2 -0.42 -0.19 -0.41 -0.19 -0.4 -0.19 -0.4 -0.18 -0.39 -0.18 -0.39 -0.18 0.15 -0.37 0.39 0.18 0.39 0.19 0.4 0.18 0.41 0.19 0.41 0.19 0.42 0.19 0.42 0.2 0.43 0.2 0.43 0.2 0.44 0.2 0.44 0.21 0.44 0.21 0.45 0.21 0.45 0.21 0.46 0.22 0.46 0.22 0.24 0.34zm-0.24 -0.34l0.32 0.15 -0.09 0.18 -0.24 -0.34zm-3.96 7.48l3.55 -7.45 0.65 0.31 -3.55 7.45 -0.41 0.03 -0.24 -0.34zm0.65 0.31l-0.08 0.18 -0.32 -0.15 0.41 -0.03zm-11.32 -5.58l11.08 5.25 -0.17 0.36 -11.08 -5.25 -0.24 -0.34 0.41 -0.03zm-0.17 0.36l-0.33 -0.15 0.09 -0.18 0.24 0.34zm13.51 -27.55l-13.1 27.53 -0.65 -0.31 13.1 -27.53 0.01 -0.02 0.64 0.33zm-0.65 -0.31l0 -0.01 0 -0.01 -0.01 0.02zm34.16 16.26l-0.65 -0.31 -0 0.02 0.13 -0.53 0.08 -0.52 0.02 -0.51 -0.03 -0.5 -0.08 -0.49 -0.13 -0.47 -0.17 -0.46 -0.21 -0.44 -0.25 -0.42 -0.28 -0.39 -0.31 -0.38 -0.34 -0.35 -0.37 -0.32 -0.38 -0.3 -0.4 -0.27 -0.42 -0.24 -0.43 -0.2 -0.45 -0.17 -0.46 -0.14 -0.47 -0.1 -0.48 -0.07 -0.48 -0.03 -0.48 0.01 -0.49 0.06 -0.48 0.1 -0.48 0.15 -0.46 0.2 -0.46 0.25 -0.44 0.31 -0.42 0.36 -0.4 0.42 -0.38 0.48 -0.63 -0.34 0.39 -0.5 0.42 -0.44 0.44 -0.38 0.47 -0.32 0.49 -0.27 0.5 -0.22 0.52 -0.16 0.53 -0.11 0.54 -0.06 0.55 -0.01 0.55 0.03 0.55 0.08 0.55 0.12 0.54 0.17 0.53 0.2 0.52 0.25 0.5 0.28 0.47 0.31 0.45 0.34 0.42 0.37 0.39 0.4 0.35 0.42 0.32 0.44 0.27 0.46 0.23 0.48 0.19 0.5 0.14 0.51 0.09 0.52 0.04 0.53 -0.02 0.54 -0.08 0.55 -0.14 0.55 -0 0.02zm0 -0.02l-0 0.02 0 -0 0 -0.02zm-7.21 13.49l6.56 -13.78 0.65 0.31 -6.56 13.78 -0.41 0.03 -0.24 -0.34zm0.65 0.31l-0.09 0.18 -0.32 -0.15 0.41 -0.03zm-11.3 -5.63l11.06 5.29 -0.17 0.36 -11.06 -5.29 -0.24 -0.34 0.41 -0.03zm-0.17 0.36l-0.32 -0.15 0.09 -0.18 0.24 0.34zm6.96 -13.79l-6.55 13.76 -0.65 -0.31 6.55 -13.76 0.01 -0.02 0.64 0.33zm-0.65 -0.31l0 -0.01 0 -0.01 -0.01 0.02zm-9.13 47.71l10.6 -22.27 0.65 0.31 -10.6 22.27 -0.41 0.03 -0.24 -0.34zm0.65 0.31l-0.09 0.18 -0.32 -0.15 0.41 -0.03zm-11.3 -5.63l11.06 5.29 -0.17 0.36 -11.06 -5.29 -0.24 -0.34 0.41 -0.03zm-0.17 0.36l-0.32 -0.15 0.09 -0.18 0.24 0.34zm11.03 -22.34l-10.62 22.32 -0.65 -0.31 10.62 -22.32 0.41 -0.02 0.23 0.33zm-0.65 -0.31l0.09 -0.18 0.33 0.16 -0.41 0.02zm11.69 5.65l-0.65 -0.31 0.23 0.34 -0.65 -0.32 -0.66 -0.32 -0.67 -0.32 -0.67 -0.33 -0.68 -0.33 -0.68 -0.33 -0.69 -0.33 -0.69 -0.34 -0.7 -0.34 -0.7 -0.34 -0.7 -0.34 -0.71 -0.34 -0.71 -0.35 -0.71 -0.34 -0.71 -0.35 -0.71 -0.35 0.18 -0.36 0.71 0.35 0.71 0.35 0.71 0.34 0.71 0.35 0.71 0.34 0.7 0.34 0.7 0.34 0.7 0.34 0.69 0.34 0.69 0.33 0.68 0.33 0.68 0.33 0.67 0.32 0.67 0.32 0.66 0.32 0.65 0.31 0.23 0.34zm-0.23 -0.34l0.32 0.15 -0.09 0.18 -0.23 -0.34zm-28.76 59.58l14.71 -30.9 0.65 0.31 -14.71 30.9 -0.41 0.03 -0.24 -0.34zm0.65 0.31l-0.09 0.18 -0.32 -0.15 0.41 -0.03zm-11.31 -5.6l11.07 5.27 -0.17 0.36 -11.07 -5.27 -0.24 -0.34 0.41 -0.03zm-0.17 0.36l-0.32 -0.15 0.09 -0.18 0.24 0.34zm15.15 -31l-14.74 30.97 -0.65 -0.31 14.74 -30.97 0.41 -0.02 0.23 0.33zm-0.65 -0.31l0.09 -0.18 0.33 0.16 -0.41 0.02zm11.69 5.65l-0.65 -0.31 0.23 0.34 -0.65 -0.31 -0.66 -0.32 -0.66 -0.32 -0.67 -0.33 -0.68 -0.33 -0.68 -0.33 -0.69 -0.33 -0.69 -0.34 -0.7 -0.34 -0.7 -0.34 -0.7 -0.34 -0.7 -0.34 -0.71 -0.35 -0.71 -0.34 -0.71 -0.35 -0.71 -0.35 0.18 -0.36 0.71 0.35 0.71 0.35 0.71 0.34 0.71 0.35 0.71 0.34 0.7 0.34 0.7 0.34 0.7 0.34 0.69 0.34 0.69 0.33 0.69 0.33 0.67 0.33 0.67 0.32 0.66 0.32 0.66 0.32 0.65 0.31 0.23 0.34zm-0.23 -0.34l0.32 0.15 -0.09 0.18 -0.23 -0.34z"/>
    <path id="_1" class="fil0" d="M1105.39 599.44l-11.08 -5.25 10.61 -22.29c3.68,1.72 7.48,3.49 11.11,5.2l-4.08 8.58 -6.57 -3.14 -3.27 6.25c2.06,0.95 4.37,2.03 6.84,3.21l-3.55 7.45zm-144.65 266.15c0.24,-0.54 0.49,-1.09 0.73,-1.65 0.37,-0.85 113.97,-227.38 114.35,-228.26l1.63 0.78c4.2,-8.45 4.84,-16.04 0.28,-22.39l7.73 -16.24c-3.41,-1.6 -6.54,-3.08 -9.09,-4.32 -2.43,-1.18 -4.1,-1.44 -7.51,-0.21 -7.12,2.62 -7.4,-1.78 -4.47,-7.39 -3.95,-3.68 -1.43,-7.01 3.07,-6.64 4.42,-7.66 7.57,-4.22 8.5,3.33 0.82,2.53 2.82,4.31 5.63,5.58l6.91 3.27 10.6 -22.27c-3.41,-1.6 -6.54,-3.08 -9.09,-4.32 -2.43,-1.18 -4.1,-1.43 -7.51,-0.21 -7.12,2.61 -7.4,-1.78 -4.48,-7.39 -3.95,-3.68 -1.43,-7.01 3.07,-6.64 4.42,-7.66 7.57,-4.22 8.5,3.33 0.82,2.53 2.82,4.31 5.63,5.58l6.91 3.27 22.5 -47.27c10.78,-0.22 23.46,-9.07 28.92,-20.54l13.89 6.61c-6.05,12.71 -3.98,24.71 2.3,35.4l-15.96 33.53 0.03 0.01c2.76,1.38 5.4,1.81 7.88,0.85 6.45,-4.03 11.1,-3.76 7.94,4.5 3.13,3.26 2.13,7.32 -3.22,6.57 -2.51,5.81 -6.1,8.36 -8.56,1.19 -1.2,-3.42 -2.45,-4.55 -4.9,-5.7 -0.7,-0.33 -1.44,-0.67 -2.21,-1.04l-4.43 9.31 -6.17 12.96 0.03 0.01c2.76,1.38 5.4,1.81 7.88,0.85 6.45,-4.03 11.1,-3.76 7.94,4.5 3.13,3.26 2.13,7.31 -3.22,6.57 -2.51,5.81 -6.1,8.36 -8.56,1.19 -1.2,-3.42 -2.45,-4.56 -4.9,-5.7 -0.7,-0.33 -1.44,-0.67 -2.21,-1.04l-14.22 29.87c-3.76,0.34 -11.52,3.93 -18.04,14.07l1.06 0.5c-0.43,0.76 -103.07,233.53 -103.4,234.33l-0.44 1.06c0.73,0.26 1.35,0.5 1.35,0.5 48.48,15.56 37.39,65.01 7.52,81.87l-4.74 -9.23c27.97,-20.71 11.99,-49.05 -11.86,-46.27 -1.72,21 5.88,39.88 12.46,53.5l-0 -0c15.35,27.35 17.64,61.45 3.15,91.88 -23.72,49.82 -83.43,70.95 -133.34,47.19 -0.18,-0.09 -0.36,-0.18 -0.54,-0.27 -1.75,-0.8 -3.47,-1.69 -5.17,-2.68 -45.79,-25.46 -64.52,-82.42 -41.73,-130.3 14.73,-30.94 43.34,-50.81 74.86,-55.74l-0.01 -0c13.7,-4.76 28.02,-8.14 41.72,-25.03l0.68 -0.85c-12.58,-21.1 -45.41,-15.91 -43.83,19.26l-10.15 2.14c-5.75,-33.81 25.64,-73.6 68.29,-45.78zm130.54 -265.04c3.68,1.72 7.48,3.49 11.11,5.2l-8.21 17.25 -11.07 -5.27 8.18 -17.18zm29.77 -62.54c3.93,-5.55 12.84,-0.51 11.07,5.27l-6.54 13.74 -6.57 -3.14 -3.27 6.25c2.06,0.94 4.37,2.03 6.84,3.21l-3.55 7.45 -11.08 -5.25 13.1 -27.53zm22.44 10.68c3.93,-5.55 12.84,-0.51 11.07,5.27l-6.56 13.78 -11.06 -5.29 6.55 -13.76zm1.47 25.44l-10.6 22.27 -11.06 -5.29 10.62 -22.32c3.8,1.84 7.58,3.68 11.04,5.34zm-13.64 28.65l-14.71 30.9 -11.07 -5.27 14.74 -30.97c3.8,1.84 7.58,3.68 11.04,5.34z"/>
   </g>
  </g>
 </g>
</svg>
