<?xml version="1.0" encoding="UTF-8"?>
<!DOCTYPE svg PUBLIC "-//W3C//DTD SVG 1.1//EN" "http://www.w3.org/Graphics/SVG/1.1/DTD/svg11.dtd">
<!-- Creator: CorelDRAW -->
<svg xmlns="http://www.w3.org/2000/svg" xml:space="preserve" width="57.8858mm" height="57.8859mm" version="1.1" style="shape-rendering:geometricPrecision; text-rendering:geometricPrecision; image-rendering:optimizeQuality; fill-rule:evenodd; clip-rule:evenodd"
viewBox="0 0 2897.81 2897.82"
 xmlns:xlink="http://www.w3.org/1999/xlink"
 >
 <defs>
  <style type="text/css">
    .fil0 {fill:#076A6C}
  </style>
 </defs>
 <g id="Слой_x0020_1">
  <metadata id="CorelCorpID_0Corel-Layer"/>
  <g id="_2128104832096">
   <path class="fil0" d="M1448.91 0c800.05,0 1448.91,648.86 1448.91,1448.91 0,800.05 -648.85,1448.91 -1448.91,1448.91 -800.05,0 -1448.91,-648.86 -1448.91,-1448.91 0,-800.05 648.86,-1448.91 1448.91,-1448.91zm0 71.79c760.44,0 1377.12,616.72 1377.12,1377.11 0,760.44 -616.72,1377.12 -1377.12,1377.12 -760.43,0 -1377.11,-616.72 -1377.11,-1377.12 0,-760.43 616.72,-1377.11 1377.11,-1377.11z"/>
   <g>
    <path class="fil0" d="M1164.65 1127.09c-11.12,-250.81 416.02,-437.26 558.16,-215.71l27.26 42.9 3.74 11.35c-9.93,7.17 -15.01,17.89 -11.88,27.41 3.13,9.52 13.59,15.13 25.85,15l8.61 26.13c-4.03,5.92 -5.49,12.65 -3.44,18.86 2.05,6.22 7.22,10.78 13.98,13.15l9.45 28.7c-4.36,6.07 -6,13.06 -3.88,19.49 2.12,6.44 7.59,11.1 14.71,13.39l7.06 21.44c-6.57,6.78 -9.5,15.36 -6.94,23.14 2.56,7.78 10.02,12.96 19.34,14.51l9.72 29.5c-5.03,6.34 -7.05,13.83 -4.79,20.7 2.26,6.87 8.35,11.7 16.15,13.82l7.43 22.57c-6.43,6.75 -9.27,15.23 -6.74,22.93 2.53,7.7 9.86,12.85 19.05,14.46l8.76 26.6c-5.59,6.52 -7.93,14.42 -5.57,21.63 2.38,7.21 8.96,12.18 17.34,14.11l8.24 25.02c-6.4,6.75 -9.23,15.21 -6.7,22.89 2.53,7.68 9.84,12.82 19,14.45l19.19 58.26c4.7,97.1 -37.67,182.15 -187.61,239.69l-3.02 0.39 0.89 79.15c19.05,11.4 31.71,31.55 31.71,54.52 0,22.47 -12.11,42.25 -30.48,53.77l0.75 66.43 0 0c2.22,91.12 -20.12,167.53 -57.83,239.71 -13.03,24.94 -11.63,26.71 -14.9,54.87l-22.26 192.27 -55.27 0 12.72 -268.78c3.25,-68.63 -6.36,-147.11 1.93,-211.86l-22.73 0 -4.05 -35.64c-23.82,-4.75 -40.45,-15.53 -40.45,-28.07 0,-11.41 13.78,-21.38 34.23,-26.65l-2.23 -19.62c-26.83,-5.43 -46.15,-20.69 -46.15,-38.66 0,-16 15.31,-29.86 37.61,-36.53l-4.86 -42.78c-111.5,16.89 -215.56,12.54 -264.35,-102.3l-3.64 -15.44c12.17,-4.17 20.81,-14.55 20.81,-26.7 0,-15.83 -14.64,-28.65 -32.69,-28.65l-1.18 0.02 -5.76 -24.35c11.43,-3.78 19.41,-12.29 19.41,-22.18 0,-12.82 -13.39,-23.31 -30.36,-24.2l-6.32 -26.74c10.93,-3.92 18.48,-12.23 18.48,-21.86 0,-12.56 -12.86,-22.9 -29.34,-24.14l-6.25 -26.48c11.44,-3.77 19.41,-12.29 19.41,-22.18 0,-12.82 -13.4,-23.32 -30.37,-24.2l-6.22 -26.35c10.52,-4.03 17.72,-12.18 17.72,-21.58 0,-12.35 -12.43,-22.54 -28.5,-24.07l-5.08 -21.51c7.33,-4.45 12.01,-11.22 12.01,-18.79 0,-10.59 -9.13,-19.59 -21.86,-22.9l-6.44 -27.29c6.81,-4.45 11.11,-10.96 11.11,-18.23 0,-10.28 -8.6,-19.06 -20.76,-22.6l-10.9 -46.16 0 0zm653.34 277.86c-152.03,-17.04 -257.16,35.6 -345.49,113.39 -17.6,11.06 -2.45,40.31 9.79,33.68 120.51,-101.31 230.82,-130.44 327.75,-113.92 4.85,0.82 8.07,1.34 11.48,-0.74 9.88,-6.04 7.61,-31.54 -3.54,-32.41l0 0zm-23.6 -69.43c-152.03,-17.04 -257.16,35.6 -345.49,113.39 -17.6,11.06 -2.45,40.31 9.79,33.68 120.51,-101.31 230.82,-130.44 327.75,-113.92 4.85,0.83 8.07,1.35 11.49,-0.74 9.87,-6.03 7.61,-31.54 -3.54,-32.41l-0.01 0zm-31.01 -66.74c-152.03,-17.04 -257.16,35.61 -345.49,113.4 -17.6,11.06 -2.45,40.31 9.8,33.68 120.51,-101.3 230.82,-130.44 327.75,-113.92 4.85,0.82 8.07,1.34 11.48,-0.74 9.88,-6.03 7.61,-31.54 -3.54,-32.41l0 0zm-22.25 -72.13c-152.03,-17.04 -257.16,35.6 -345.49,113.39 -17.6,11.06 -2.45,40.31 9.79,33.68 120.51,-101.31 230.82,-130.44 327.75,-113.92 4.85,0.82 8.07,1.34 11.48,-0.74 9.88,-6.04 7.61,-31.54 -3.54,-32.41l0 0zm-21.57 -67.41c-152.03,-17.04 -257.16,35.6 -345.49,113.39 -17.6,11.06 -2.45,40.31 9.8,33.68 120.51,-101.31 230.82,-130.44 327.75,-113.92 4.85,0.83 8.07,1.35 11.48,-0.74 9.88,-6.03 7.61,-31.53 -3.53,-32.41l-0.01 0zm-14.16 -69.43c-152.03,-17.04 -257.16,35.6 -345.49,113.39 -17.6,11.06 -2.45,40.31 9.79,33.68 120.51,-101.31 230.82,-130.44 327.75,-113.92 4.85,0.82 8.07,1.34 11.49,-0.74 9.87,-6.03 7.61,-31.54 -3.54,-32.41l-0.01 0zm-22.92 -66.07c-152.03,-17.04 -257.16,35.6 -345.49,113.39 -17.6,11.06 -2.45,40.31 9.79,33.68 120.51,-101.31 230.83,-130.44 327.75,-113.92 4.85,0.82 8.07,1.34 11.48,-0.75 9.88,-6.03 7.61,-31.53 -3.54,-32.41l0 0zm-20.9 -66.74c-152.03,-17.04 -257.16,35.6 -345.49,113.39 -17.6,11.06 -2.45,40.31 9.8,33.68 120.51,-101.31 230.82,-130.44 327.75,-113.92 4.85,0.83 8.07,1.34 11.48,-0.74 9.88,-6.03 7.61,-31.54 -3.54,-32.41l0 0z"/>
    <path class="fil0" d="M1781.07 761.44c-6.96,172.17 48.46,287.57 135.67,379.1l-12.86 1.42c-124.61,-122.55 -179.34,-315.49 -144.84,-485.65 35.76,-176.38 114.63,-140.54 44,17.4 -17.23,38.54 -20.19,43.45 -21.98,87.73l0 0.01z"/>
    <path class="fil0" d="M1405.89 644.55c53.69,-19.57 106.61,-17.65 171.56,7.02 344.66,134.34 421.72,405.5 265.26,646.81l7.73 -32.01c135.12,-305.76 -11.68,-470.33 -254.29,-567.71 -35.15,-14.11 -15.36,-4.67 -46.65,-0.65 -65.75,8.45 -244.6,-16.64 -143.6,-53.46z"/>
    <path class="fil0" d="M1099.81 1552.51c-3.2,293.71 209.05,461.03 494.1,433.69 5.34,-0.51 21.89,2.17 27.32,2.35 -7.57,0.86 -15.16,1.17 -22.59,2.32 -282.66,43.9 -497.88,-76.11 -542.38,-416.08 -26.65,-219.01 83.23,-213.8 43.55,-22.29z"/>
    <path class="fil0" d="M1102.73 1865.38c289.63,-58.37 545.96,160.27 437.31,493.28 -1.66,5.09 12.68,-3.44 20.18,-26.38 96.97,-296.21 -100.86,-507.58 -442.26,-513.39 -220.48,7.8 -198.21,115.53 -15.22,46.5l-0.01 -0.01z"/>
    <path class="fil0" d="M927.25 361.11l19.48 0.33c2.14,13.32 10.28,25.63 24.4,37.09 14.13,11.45 28.48,22.68 43.06,33.85 16.88,14.74 28.26,31.69 34.15,50.97 4.2,13.87 6.1,32.65 5.71,56.19l-0.18 10.63c-0.14,8.49 -0.73,17.04 -1.75,25.58l-14.61 -0.25 1.47 -8.38 0.21 -12.4 0.23 -13.72c0.26,-15.64 -1.9,-27.49 -6.5,-35.53 -6.03,-10.14 -18.26,-20.23 -36.7,-30.28 -15.8,-8.23 -26.91,-15.35 -33.3,-21.36 -7.57,-6.91 -12.45,-15.12 -14.65,-24.6l-2.66 -0.05 -4.27 258.55c-0.51,30.7 -10.06,54.75 -28.65,72.16 -18.59,17.41 -43.09,25.86 -73.49,25.36 -18.89,-0.32 -33.73,-4.84 -44.5,-13.58 -10.78,-8.74 -16.05,-20.34 -15.81,-34.8 0.43,-25.68 12.13,-46.15 35.12,-61.42 19.7,-12.97 41.21,-19.25 64.53,-18.87 9.45,0.17 17.62,1.4 24.51,3.73 6.9,2.33 12.52,6.04 16.87,11.13l2.21 0.04 5.14 -310.36 -0.01 -0.01z"/>
    <path class="fil0" d="M1979.17 361.11l19.48 0.33c2.14,13.32 10.28,25.63 24.4,37.09 14.13,11.45 28.48,22.68 43.06,33.85 16.88,14.74 28.26,31.69 34.14,50.97 4.21,13.87 6.11,32.65 5.72,56.19l-0.18 10.63c-0.14,8.49 -0.73,17.04 -1.75,25.58l-14.61 -0.25 1.47 -8.38 0.21 -12.4 0.23 -13.72c0.26,-15.64 -1.9,-27.49 -6.5,-35.53 -6.03,-10.14 -18.26,-20.23 -36.7,-30.28 -15.81,-8.23 -26.91,-15.35 -33.3,-21.36 -7.57,-6.91 -12.45,-15.12 -14.65,-24.6l-2.66 -0.05 -4.27 258.55c-0.51,30.7 -10.06,54.75 -28.65,72.16 -18.59,17.41 -43.09,25.86 -73.49,25.36 -18.89,-0.32 -33.73,-4.84 -44.5,-13.58 -10.78,-8.74 -16.05,-20.34 -15.81,-34.8 0.43,-25.68 12.13,-46.15 35.12,-61.42 19.7,-12.97 41.21,-19.25 64.53,-18.87 9.44,0.17 17.62,1.4 24.51,3.73 6.9,2.33 12.52,6.04 16.87,11.13l2.21 0.04 5.14 -310.36 -0.01 -0.01z"/>
    <path class="fil0" d="M476.92 1187.67l19.48 0.33c2.14,13.32 10.28,25.63 24.4,37.08 14.13,11.45 28.48,22.69 43.06,33.85 16.89,14.75 28.27,31.69 34.15,50.98 4.2,13.87 6.1,32.65 5.71,56.18l-0.18 10.63c-0.14,8.49 -0.72,17.04 -1.75,25.58l-14.61 -0.24 1.47 -8.38 0.21 -12.4 0.23 -13.72c0.26,-15.64 -1.91,-27.49 -6.5,-35.53 -6.03,-10.14 -18.26,-20.23 -36.69,-30.28 -15.81,-8.23 -26.91,-15.35 -33.3,-21.36 -7.57,-6.91 -12.45,-15.12 -14.65,-24.6l-2.66 -0.05 -4.27 258.56c-0.51,30.7 -10.06,54.75 -28.65,72.16 -18.59,17.41 -43.09,25.86 -73.49,25.36 -18.89,-0.32 -33.73,-4.84 -44.5,-13.58 -10.78,-8.75 -16.04,-20.34 -15.81,-34.8 0.43,-25.68 12.13,-46.15 35.11,-61.42 19.7,-12.97 41.21,-19.25 64.53,-18.87 9.45,0.16 17.62,1.4 24.52,3.73 6.9,2.33 12.52,6.04 16.86,11.13l2.22 0.04 5.13 -310.36 0 -0.01z"/>
    <path class="fil0" d="M2402.45 1187.67l19.48 0.33c2.14,13.32 10.28,25.63 24.4,37.08 14.13,11.45 28.48,22.69 43.06,33.85 16.89,14.75 28.27,31.69 34.15,50.98 4.2,13.87 6.1,32.65 5.71,56.18l-0.17 10.63c-0.15,8.49 -0.73,17.04 -1.75,25.58l-14.61 -0.24 1.47 -8.38 0.21 -12.4 0.23 -13.72c0.26,-15.64 -1.9,-27.49 -6.5,-35.53 -6.03,-10.14 -18.26,-20.23 -36.69,-30.28 -15.81,-8.23 -26.91,-15.35 -33.3,-21.36 -7.57,-6.91 -12.45,-15.12 -14.65,-24.6l-2.66 -0.05 -4.27 258.56c-0.51,30.7 -10.06,54.75 -28.65,72.16 -18.59,17.41 -43.09,25.86 -73.49,25.36 -18.89,-0.32 -33.73,-4.84 -44.5,-13.58 -10.77,-8.75 -16.04,-20.34 -15.81,-34.8 0.43,-25.68 12.13,-46.15 35.11,-61.42 19.7,-12.97 41.21,-19.25 64.53,-18.87 9.44,0.16 17.62,1.4 24.51,3.73 6.9,2.33 12.52,6.04 16.86,11.13l2.22 0.04 5.13 -310.36 0 -0.01z"/>
    <path class="fil0" d="M927.25 1971.1l19.48 0.32c2.14,13.32 10.28,25.64 24.4,37.09 14.13,11.45 28.48,22.69 43.06,33.85 16.88,14.75 28.26,31.69 34.15,50.98 4.2,13.87 6.1,32.65 5.71,56.18l-0.18 10.63c-0.14,8.49 -0.73,17.04 -1.75,25.58l-14.61 -0.24 1.47 -8.38 0.21 -12.4 0.23 -13.72c0.26,-15.64 -1.9,-27.49 -6.5,-35.53 -6.03,-10.14 -18.26,-20.23 -36.7,-30.28 -15.8,-8.23 -26.91,-15.35 -33.3,-21.36 -7.57,-6.91 -12.45,-15.12 -14.65,-24.6l-2.66 -0.05 -4.27 258.56c-0.51,30.7 -10.06,54.75 -28.65,72.16 -18.59,17.41 -43.09,25.86 -73.49,25.36 -18.89,-0.32 -33.73,-4.84 -44.5,-13.58 -10.78,-8.75 -16.05,-20.34 -15.81,-34.8 0.43,-25.68 12.13,-46.15 35.12,-61.42 19.7,-12.97 41.21,-19.25 64.53,-18.87 9.45,0.16 17.62,1.4 24.51,3.73 6.9,2.33 12.52,6.04 16.87,11.13l2.21 0.04 5.14 -310.36 -0.01 -0.01z"/>
    <path class="fil0" d="M1979.17 1955.04l19.48 0.33c2.14,13.32 10.28,25.64 24.4,37.09 14.13,11.45 28.48,22.68 43.06,33.85 16.88,14.75 28.26,31.69 34.14,50.97 4.21,13.88 6.11,32.65 5.72,56.19l-0.18 10.63c-0.14,8.49 -0.73,17.04 -1.75,25.58l-14.61 -0.24 1.47 -8.39 0.21 -12.4 0.23 -13.72c0.26,-15.64 -1.9,-27.49 -6.5,-35.53 -6.03,-10.14 -18.26,-20.23 -36.7,-30.28 -15.81,-8.24 -26.91,-15.35 -33.3,-21.37 -7.57,-6.91 -12.45,-15.12 -14.65,-24.59l-2.66 -0.05 -4.27 258.56c-0.51,30.7 -10.06,54.74 -28.65,72.16 -18.59,17.41 -43.09,25.86 -73.49,25.36 -18.89,-0.32 -33.73,-4.85 -44.5,-13.58 -10.78,-8.74 -16.05,-20.34 -15.81,-34.8 0.43,-25.68 12.13,-46.15 35.12,-61.42 19.7,-12.97 41.21,-19.25 64.53,-18.87 9.44,0.16 17.62,1.4 24.51,3.72 6.9,2.33 12.52,6.04 16.87,11.13l2.21 0.04 5.14 -310.36 -0.01 -0.01z"/>
   </g>
  </g>
 </g>
</svg>
