<?xml version="1.0" encoding="UTF-8"?>
<!DOCTYPE svg PUBLIC "-//W3C//DTD SVG 1.1//EN" "http://www.w3.org/Graphics/SVG/1.1/DTD/svg11.dtd">
<!-- Creator: CorelDRAW -->
<svg xmlns="http://www.w3.org/2000/svg" xml:space="preserve" width="57.8858mm" height="57.8859mm" version="1.1" style="shape-rendering:geometricPrecision; text-rendering:geometricPrecision; image-rendering:optimizeQuality; fill-rule:evenodd; clip-rule:evenodd"
viewBox="0 0 52416.32 52416.41"
 xmlns:xlink="http://www.w3.org/1999/xlink"
 >
 <defs>
  <style type="text/css">
    .fil0 {fill:#076A6C}
  </style>
 </defs>
 <g id="Слой_x0020_1">
  <metadata id="CorelCorpID_0Corel-Layer"/>
  <g id="_2128098615808">
   <path class="fil0" d="M22329.85 15860.42c615.66,-3.26 1211.39,-98.16 1618.88,161.09 1031.11,-5.61 2457.11,-517.14 2964.65,-33.87l1051.12 -56.05c232.35,-8.33 233.98,-338.84 202.83,-540.77l-154.12 -1037.17c143.7,-351.7 289.31,-679.5 133.93,-744.51 -171.78,-141.71 -428.31,36.67 -652.51,155.93 -308.42,84.39 -471.95,-13.67 -490.52,-294.38 -225.56,-120.7 -245.39,-337.94 -171.69,-599.18 60.04,-302.53 179.2,-524.38 360.85,-714.72 -173.13,-587.68 415.45,-1104 945.72,-910.04 504.1,317.11 772.95,77.6 1035.91,-178.02 168.88,-164.17 265.95,-205.55 495.86,-267.94 698.6,-189.43 1190.93,-152.4 1440.67,151.13 77.15,95.98 172.86,140.45 287.41,133.38 221.4,-19.2 407.48,33.87 552.09,203.47 130.03,152.49 74.8,157.65 264.59,202.38 130.76,30.97 219.86,118.26 255.63,277.45 22.19,98.7 23.72,102.5 100.15,174.04 328.97,307.96 451.49,457.56 411.92,995.97 -10.69,543.85 -33.78,585.41 -234.89,814.42 -226.92,143.7 -381.76,315.03 -487.17,505.46 -150.86,282.79 -326.26,511.07 -530.18,675.78 -122.88,99.24 -155.39,120.89 -230,261.06 -244.31,459.28 -571.11,675.51 -922.36,797.21l-176.12 82.49c-127.5,59.76 -193.06,45.28 -318.47,77.42 -309.96,79.5 -279.26,594.92 84.48,528 245.48,1.09 498.3,13.58 676.51,-91.19 853.9,-390.19 1643.23,-875.45 2629.43,-1044.69l758.82 -283.15c237.97,-88.83 363.2,-131.93 541.68,-309.41 386.56,-384.57 779.37,-682.85 1180.7,-862.05l904.24 -526.47c368.54,-179.29 670.62,-455.93 1023.14,-659.94 630.42,-364.74 1263.46,-576.36 1494.55,-948.34l211.71 -891.21c34.68,-146.06 52.97,-244.31 45.64,-392.45 -11.95,-239.06 6.88,-458.01 178.93,-581.07 99.61,-71.08 86.39,-52.61 108.21,-180.74 50.8,-297.19 168.88,-527.01 439.54,-604.16 555.08,-166.89 133.29,269.66 13.22,426.59 -189.98,271.74 266.22,278.63 511.16,238.42 83.85,-13.76 95.53,-17.11 145.52,-77.6 82.85,-100.42 279.44,-93.36 153.85,54.96l-203.29 217.69c-27.71,109.48 -49.08,224.48 -89.37,323.54 -45.09,111.2 -106.85,205.64 -149.95,322l-49.62 133.83c-37.85,102.05 -53.43,163.81 -57.86,271.56 -22.73,538.33 -153.85,947.71 -438.36,1174.45 -234.71,333.32 -489.79,533.53 -761.81,623.45 -1064.97,942.91 -2119.35,1824.25 -3184.33,2467.52l-1524.79 856.43c-200.75,112.83 -399.69,230.36 -605.79,333.14 -528.19,263.23 -949.61,348.17 -1657.09,604.43 -560.69,196.04 -1203.06,478.65 -1632.82,861.96l-359.13 459c-525.29,620.55 -1168.47,1174.63 -1715.13,1811.39l-868.93 658.76c-926.61,825.01 -441.35,2037.22 1107.17,1541.73 716.44,-132.66 1350.75,-23.09 2002.18,216.51 1124.28,55.6 1743.93,897.54 2678.96,1325.22l2104.86 -12.86 207.72 -1.18c50.26,1.27 116.81,19.47 188.26,65.56 195.32,126.14 407.21,399.06 238.78,532.26 -76.52,60.58 -118.26,25.17 -142.89,132.02 -62.93,271.65 147.15,399.33 497.31,458.1 992.8,189.98 1347.31,615.11 413.37,1057.82 136.73,701.95 -433.65,771.23 -928.51,1398.2 -51.7,84.03 -26.17,308.33 -39.3,462.54l-581.88 554.54c-162.27,402.59 -497.4,400.96 -883.33,365.1 -162.54,-31.06 -236.97,100.78 -219.22,333.77 7.97,105.04 -4.17,150.13 91.55,188.44 307.78,123.24 202.11,331.33 -82.31,356.86l-158.01 -40.2c-479.11,462.54 -612.76,482.64 -746.6,347.54l-581.88 84.21 -820.21 589.76 -1451.17 6.97 -357.5 -196.5 -687.01 49.08 -1065.61 554.63 -252.37 442.25 378.59 1184.86 658.76 1191.38 546.57 742.79c268.39,409.74 503.19,834.16 577.26,1114.69 620.55,873.91 931.32,1744.29 748.13,2477.75 -122.15,226.2 -387.38,221.94 -743.06,-56.14 -382.13,-333.5 -711.64,-731.29 -925.43,-1270.71l-1093.59 -2288.59 -1402.1 -2042.93 -644.91 -540.59 -196.32 56.14 315.48 1726.99 477.39 2869.66 17.02 623.08 49.26 521.67 732.2 2324.99 427.67 1916.52 168.24 779.28c36.58,275.55 21.46,554.08 -135.56,792.23 -82.49,125.14 -146.15,173.59 -194.41,319.83l-230.91 699.15c-211.53,632.05 -1013.54,720.61 -1040.34,-203.83 -14.22,-667 42.83,-1222.26 287.77,-1817.73 69.36,-168.88 31.6,-292.48 10.59,-474.67l-119.62 -1037.63 -910.95 -2200.49 -798.93 -1611.72c-333.59,-663.02 -457.56,-1153.26 -504.55,-2214.43l-280.35 -1443.66c-238.24,-649.61 -499.84,-1205.69 -812.88,-1555.67 -78.33,-125.32 -269.66,-162.54 -430.57,-200.48 -283.61,-66.92 -537.06,39.3 -668.63,316.84l-161.18 386.11c-414.72,838.41 -1032.83,76.24 -1342.33,-326.44 -332.69,-409.11 -821.75,-428.76 -1282.93,-56.23l-427.67 337.03 -350.52 280.8c-605.43,496.76 -1187.04,369.81 -1755.25,-106.94 -375.33,-521.3 -230.09,-1270.34 -793.77,-1512.21 -240.41,-103.14 -647.71,-146.69 -913.93,-186.08 -858.52,-127.13 -1904.38,35.41 -2286.87,-196.95 -138.82,-84.39 -131.48,-184.36 -148.14,-329.15l-19.92 -172.32c-17.48,-263.05 -91,-437.09 -220.67,-522.21 -110.38,-198.04 -252.82,-340.56 -466.07,-360.76 -253.72,-454.21 -564.68,-567.21 -1037.08,-644.72 -357.41,-93 -378.32,-246.93 -62.66,-461.72 169.33,-126.05 246.84,-306.79 70.09,-638.84 -129.76,-220.49 -233.53,-458.28 -100.33,-661.66 126.59,-193.33 85.93,-119.71 32.78,-325.62 -50.44,-195.5 13.22,-351.52 267.4,-441.35l-87.65 -354.51c-74.8,-162.63 -96.98,-504.28 259.34,-477.39 724.32,299.54 2156.12,-124.33 2965.37,-147.42 845.39,-134.29 1657.18,-416.54 2409.03,-962.65 695.16,-515.96 1671.03,-813.69 2571.84,-917.83 477.21,-173.77 924.53,-407.3 1289.36,-805.82 648.89,-752.66 1336.72,-1201.34 2060.31,-1373.57 335.31,-117.35 501.11,-540.14 462.54,-1331.47 -100.69,-893.83 -133.56,-1892.97 154.12,-2270.48 236.25,-269.03 457.46,-491.87 157.74,-588.67l-1173.73 -147.15c-296.83,-29.07 -533.44,-69.27 -738.35,-138.63 -259.88,-88.11 -378.05,-175.94 -656.68,-198.85 -476.84,-39.12 -869.56,-80.41 -1204.97,-202.11 -1236.75,-363.29 -2148.06,-594.38 -2873.19,-995.07l-666.82 -282.34c-332.23,-135.56 -760.99,-92.27 -891.75,-25.26 -345.18,383.94 -704.85,408.75 -784.99,802.19 -27.26,133.65 -31.51,131.21 -94.72,253.36l-356.23 447.5c-228.91,199.21 -383.12,-42.38 -126.14,-382.58 206.55,-505.19 -387.56,-554.9 -623.9,-428.22l-602.89 596.73 -171.78 185.99c-212.7,223.48 -404.22,16.39 -269.93,-179.02 310.05,-288.13 507.9,-734.19 930.14,-864.4 223.21,-77.33 428.85,-162.63 549.1,-286.96l911.31 -905.6c363.11,-274.91 873.55,-261.15 1486.22,-217.59l3028.49 617.74c854.08,138.09 1660.35,224.66 2474.68,652.87l261.78 148.78z"/>
   <path class="fil0" d="M26208.16 0c14471.45,0 26208.16,11736.71 26208.16,26208.16 0,14471.54 -11736.71,26208.25 -26208.16,26208.25 -14471.45,0 -26208.16,-11736.71 -26208.16,-26208.25 0,-14471.45 11736.71,-26208.16 26208.16,-26208.16zm0 1298.6c13754.92,0 24909.66,11155.28 24909.66,24909.57 0,13755.01 -11155.28,24909.66 -24909.66,24909.66 -13754.92,0 -24909.66,-11155.28 -24909.66,-24909.66 0,-13754.92 11155.28,-24909.57 24909.66,-24909.57z"/>
  </g>
 </g>
</svg>
